<svg width="23" height="29" viewBox="0 0 23 29" fill="none" xmlns="http://www.w3.org/2000/svg">
<path d="M0.0996094 21.3487C1.8198 13.7371 5.4954 6.70585 10.7634 0.948778C10.857 0.846868 10.9708 0.765518 11.0976 0.709868C11.2243 0.654218 11.3612 0.625488 11.4996 0.625488C11.638 0.625488 11.7749 0.654218 11.9017 0.709868C12.0284 0.765518 12.1422 0.846868 12.2359 0.948778C12.4434 1.17378 12.6159 1.36378 12.7521 1.51753C17.7478 7.16985 21.2379 13.9904 22.8996 21.3487C20.2234 21.9125 17.4746 22.2825 14.6696 22.4412L12.0584 27.6637C12.0064 27.7674 11.9266 27.8546 11.8279 27.9155C11.7293 27.9764 11.6156 28.0087 11.4996 28.0087C11.3836 28.0087 11.27 27.9764 11.1713 27.9155C11.0726 27.8546 10.9928 27.7674 10.9409 27.6637L8.3296 22.4412C5.5627 22.2848 2.8115 21.9196 0.0996094 21.3487ZM11.4996 17.5312C12.4942 17.5312 13.448 17.1361 14.1513 16.4329C14.8545 15.7296 15.2496 14.7758 15.2496 13.7812C15.2496 12.7867 14.8545 11.8328 14.1513 11.1296C13.448 10.4263 12.4942 10.0312 11.4996 10.0312C10.505 10.0312 9.5512 10.4263 8.848 11.1296C8.1447 11.8328 7.7496 12.7867 7.7496 13.7812C7.7496 14.7758 8.1447 15.7296 8.848 16.4329C9.5512 17.1361 10.505 17.5312 11.4996 17.5312Z" fill="#1355FF"/>
</svg>
