<svg width="98" height="32" viewBox="0 0 98 32" fill="none" xmlns="http://www.w3.org/2000/svg">
<g clip-path="url(#clip0_2_988)">
<path d="M16.6868 2.66602C24.0468 2.66602 30.0202 8.63935 30.0202 15.9993C30.0202 23.3593 24.0468 29.3327 16.6868 29.3327C9.32685 29.3327 3.35352 23.3593 3.35352 15.9993C3.35352 8.63935 9.32685 2.66602 16.6868 2.66602ZM16.6868 26.666C22.5895 26.666 27.3535 21.902 27.3535 15.9993C27.3535 10.0967 22.5895 5.33268 16.6868 5.33268C15.2856 5.33093 13.8977 5.60563 12.6028 6.14106C11.3079 6.67649 10.1313 7.46212 9.14046 8.45296C8.14962 9.4438 7.36399 10.6204 6.82856 11.9153C6.29313 13.2102 6.01843 14.5981 6.02018 15.9993C6.02018 21.902 10.7842 26.666 16.6868 26.666ZM16.6868 23.9993C12.2602 23.9993 8.68685 20.426 8.68685 15.9993C8.68685 11.5727 12.2602 7.99935 16.6868 7.99935C21.1135 7.99935 24.6868 11.5727 24.6868 15.9993C24.6868 20.426 21.1135 23.9993 16.6868 23.9993ZM16.6868 13.3327C15.2202 13.3327 14.0202 14.5327 14.0202 15.9993C14.0202 17.466 15.2202 18.666 16.6868 18.666C18.1535 18.666 19.3535 17.466 19.3535 15.9993C19.3535 14.5327 18.1535 13.3327 16.6868 13.3327Z" fill="#1355FF"/>
<path d="M40.6875 16.5646C40.6875 20.5529 43.5418 23.1787 47.8863 23.1787C52.2561 23.1787 55.1104 20.4043 55.1104 16.5646C55.1104 12.7498 52.2561 10.0249 47.8863 10.0249C43.5418 10.0249 40.6875 12.5764 40.6875 16.5646ZM43.9712 16.5646C43.9712 14.5333 45.0826 12.9479 47.8863 12.9479C50.69 12.9479 51.8267 14.5333 51.8267 16.5646C51.8267 18.5959 50.69 20.2556 47.8863 20.2556C45.1078 20.2556 43.9712 18.5959 43.9712 16.5646Z" fill="#061237"/>
<path d="M59.6939 21.8162C59.6939 21.073 59.2392 20.206 59.0119 19.4876L59.5423 19.3142C59.7949 20.0078 59.9212 21.0235 60.4517 21.5437C61.3862 22.5098 62.6997 23.1538 64.3668 23.1538C68.0293 23.1538 70.5805 20.1069 70.6815 16.5398C70.7573 12.8735 68.1556 10 64.3668 10C62.6744 10 61.361 10.5698 60.4264 11.5359C59.9212 12.0561 59.7949 13.0717 59.5423 13.7901L59.0119 13.6167C59.2645 12.8983 59.6939 12.0313 59.6939 11.2881V10.3964L56.587 10.4211V29L59.6939 28.9752V21.8162ZM63.9374 12.824C66.3117 12.824 67.5747 14.4094 67.5747 16.4902C67.5747 18.5958 66.3117 20.3299 63.9374 20.3299C61.5883 20.3299 60.2496 18.5958 60.2496 16.4902C60.2496 14.4094 61.5883 12.824 63.9374 12.824Z" fill="#061237"/>
<path d="M80.1699 22.0144C80.6751 21.5438 80.8519 20.652 81.0792 20.0079L81.6097 20.2061C81.3823 20.8502 80.9277 21.6181 80.9024 22.2869V22.7824H83.984V10.3965H80.9024V16.9362C80.9024 19.3886 79.3869 20.4786 77.543 20.4786C75.8506 20.4786 74.6635 19.5125 74.6635 16.9362V10.3965H71.5566V18.8932C71.5566 21.6924 73.9562 23.1539 76.4316 23.1539C78.1745 23.1539 79.1343 23.0053 80.1699 22.0144Z" fill="#061237"/>
<path d="M97.6875 18.7693C97.6875 13.7406 88.468 15.4499 88.468 13.6663C88.468 12.8736 89.6804 12.5021 91.0697 12.5021C93.1156 12.5021 94.3028 13.1214 94.3028 13.9141H97.4097C97.4097 12.18 95.7173 10.0249 91.2465 10.0249C87.2555 10.0249 85.3611 11.7589 85.3611 13.6911C85.3611 18.15 94.5301 16.5399 94.5301 18.9675C94.5301 19.6611 93.8987 20.33 91.979 20.33C89.6046 20.33 88.3669 19.2152 88.3669 18.5712H85.2601C85.2601 20.652 87.3061 23.1787 91.6506 23.1787C95.7678 23.1787 97.6875 21.1722 97.6875 18.7693Z" fill="#061237"/>
</g>
<defs>
<clipPath id="clip0_2_988">
<rect width="97" height="32" fill="white" transform="translate(0.6875)"/>
</clipPath>
</defs>
</svg>
