<svg width="240" height="130" viewBox="0 0 240 130" fill="none" xmlns="http://www.w3.org/2000/svg">
<path d="M54.0707 74.4633C54.1977 74.4633 54.2793 74.3441 54.3156 74.1057C54.3701 73.8673 54.2883 73.4362 54.0707 72.8128C53.9981 72.5744 53.8348 72.1525 53.5807 71.5473C53.3448 70.942 53.0636 70.2451 52.7371 69.4566C52.4104 68.6679 52.0748 67.8702 51.73 67.0631C51.4034 66.2562 51.1039 65.5134 50.8318 64.8349C50.5596 64.1563 50.3509 63.6428 50.2058 63.2944C49.9698 62.6707 49.716 62.2307 49.4437 61.9739C49.1898 61.7171 48.9811 61.5887 48.8177 61.5887H54.3701C54.2612 61.5887 54.1887 61.7171 54.1523 61.9739C54.116 62.2307 54.1887 62.6707 54.3701 63.2944C54.4608 63.6245 54.606 64.1105 54.8055 64.7524C55.0233 65.3943 55.2592 66.1186 55.5132 66.9257C55.7853 67.7326 56.0576 68.5579 56.3297 69.4015C56.62 70.2451 56.8832 71.0245 57.119 71.7398H57.1462C57.3459 71.0063 57.5636 70.2176 57.7995 69.3741C58.0353 68.512 58.2622 67.6777 58.4799 66.8707C58.6976 66.0453 58.8882 65.3118 59.0515 64.6699C59.2329 64.0279 59.3599 63.5512 59.4325 63.2393C59.5958 62.6158 59.6594 62.1847 59.623 61.9464C59.5867 61.7079 59.5232 61.5887 59.4325 61.5887H65.4748C65.3659 61.5887 65.2934 61.7171 65.257 61.9739C65.2207 62.2307 65.2934 62.6707 65.4748 63.2944C65.5655 63.6245 65.7017 64.1105 65.8831 64.7524C66.0645 65.3943 66.2641 66.1186 66.4818 66.9257C66.6995 67.7326 66.9264 68.5579 67.1623 69.4015C67.3982 70.2451 67.6068 71.0245 67.7883 71.7398H67.8155C68.0877 71.0063 68.3689 70.2176 68.6592 69.3741C68.9677 68.512 69.2672 67.6777 69.5574 66.8707C69.8477 66.0453 70.1017 65.3118 70.3195 64.6699C70.5373 64.0279 70.6824 63.5512 70.755 63.2393C70.9183 62.6525 70.9818 62.2307 70.9455 61.9739C70.9092 61.7171 70.8457 61.5887 70.755 61.5887H76.1713C76.0442 61.5887 75.8627 61.7079 75.6269 61.9464C75.3911 62.1847 75.1461 62.6065 74.892 63.2119C74.765 63.542 74.5562 64.0279 74.266 64.6699C73.9757 65.3118 73.6581 66.027 73.3134 66.8155C72.9687 67.6042 72.6239 68.3929 72.2792 69.1815C71.9343 69.97 71.6259 70.6853 71.3537 71.3273C71.0997 71.9692 70.9183 72.4642 70.8094 72.8128C70.6279 73.3997 70.5554 73.8215 70.5917 74.0782C70.6279 74.335 70.7005 74.4633 70.8094 74.4633H64.7399C64.8487 74.4633 64.9214 74.335 64.9577 74.0782C64.9939 73.8215 64.9214 73.3997 64.7399 72.8128C64.6855 72.6477 64.5766 72.2717 64.4133 71.6848C64.2681 71.0979 64.0866 70.3919 63.8689 69.5665C63.6512 68.723 63.4244 67.8517 63.1886 66.9532C62.9527 66.0545 62.7258 65.2017 62.5081 64.3948H62.4265C62.2087 65.1651 61.9818 65.9903 61.7461 66.8707C61.5102 67.7326 61.2833 68.5762 61.0655 69.4015C60.8478 70.2085 60.6482 70.9237 60.4668 71.5473C60.3035 72.1525 60.1946 72.5744 60.1401 72.8128C59.9769 73.418 59.9132 73.8489 59.9496 74.1057C59.986 74.3441 60.0495 74.4633 60.1401 74.4633H54.0707ZM82.2156 74.7383C80.3104 74.7383 78.8134 74.4725 77.7247 73.9406C76.6542 73.4088 75.9012 72.6477 75.4657 71.6573C75.0303 70.6487 74.8125 69.4474 74.8125 68.0535C74.8125 65.9811 75.384 64.3397 76.5272 63.1293C77.6703 61.9189 79.4213 61.3136 81.7802 61.3136C83.1591 61.3136 84.2751 61.5062 85.1279 61.8913C85.9989 62.2765 86.6612 62.79 87.1147 63.4319C87.5684 64.0738 87.8768 64.789 88.0401 65.5777C88.2216 66.3479 88.3123 67.1274 88.3123 67.916V69.209C88.3123 69.1539 88.0582 69.099 87.5503 69.0439C87.0603 68.9706 86.2257 68.9339 85.0462 68.9339H78.7318C78.7318 69.9426 79.0311 70.7037 79.63 71.2172C80.2469 71.7124 81.2448 71.96 82.6239 71.96C83.7852 71.96 84.8194 71.8224 85.7267 71.5473C86.6521 71.2538 87.3234 70.9788 87.7408 70.722V71.5473L88.0129 73.638C87.6682 73.8764 87.0059 74.124 86.0261 74.3808C85.0462 74.6192 83.7762 74.7383 82.2156 74.7383ZM79.7388 66.5679H84.4474C84.4474 66.1646 84.3567 65.7702 84.1753 65.3851C84.0121 65 83.7398 64.6882 83.3588 64.4498C82.9777 64.193 82.4515 64.0646 81.7802 64.0646C80.7823 64.0646 80.0655 64.2755 79.63 64.6973C79.1945 65.1191 78.9767 65.5593 78.9767 66.0178C78.9767 66.2012 79.0311 66.3387 79.1401 66.4305C79.2489 66.5222 79.4486 66.5679 79.7388 66.5679ZM94.8825 74.7383C93.6308 74.7383 92.7236 74.4725 92.161 73.9406C91.5985 73.3904 91.3172 72.5009 91.3172 71.2721V64.3397H88.8677V61.5887C89.7025 61.5887 90.3557 61.4879 90.8273 61.2862C91.2992 61.066 91.6349 60.6901 91.8344 60.1582C92.034 59.6264 92.1337 58.8836 92.1337 57.9299H95.1825V61.5887H99.8362C99.7096 61.9555 99.5822 62.4141 99.4556 62.9643C99.3468 63.4961 99.2915 63.9546 99.2915 64.3397H95.1825V69.7591C95.1825 70.6028 95.2453 71.1804 95.3728 71.4922C95.4993 71.8042 95.7993 71.96 96.2709 71.96C96.5793 71.96 96.915 71.8499 97.2778 71.6299C97.6593 71.4098 98.0222 71.1439 98.3662 70.8321C98.729 70.5019 99.029 70.1901 99.2643 69.8967V70.7495L99.5371 73.418C99.21 73.7113 98.639 74.0048 97.8225 74.2983C97.0059 74.5917 96.0262 74.7383 94.8825 74.7383ZM100.207 74.4633C100.334 74.4633 100.452 74.335 100.561 74.0782C100.687 73.8215 100.751 73.3997 100.751 72.8128V63.5144C100.751 62.9275 100.687 62.5148 100.561 62.2765C100.452 62.0197 100.334 61.8822 100.207 61.8638C101.005 61.8638 101.822 61.8088 102.656 61.6988C103.492 61.5704 104.144 61.4421 104.617 61.3136V62.4141L104.562 62.8817L104.617 62.9367C104.743 62.735 104.943 62.5148 105.215 62.2765C105.505 62.0197 105.868 61.7996 106.304 61.6163C106.758 61.4145 107.284 61.3136 107.882 61.3136C108.772 61.3136 109.561 61.4421 110.25 61.6988C110.94 61.9372 111.429 62.1847 111.72 62.4415L110.903 66.1279V66.9532C110.632 66.5679 110.259 66.1737 109.788 65.7702C109.334 65.3667 108.826 65.0274 108.263 64.7524C107.719 64.4773 107.156 64.3397 106.576 64.3397C105.922 64.3397 105.433 64.5782 105.106 65.0549C104.78 65.5318 104.617 66.2837 104.617 67.3107V72.8128C104.617 73.3997 104.671 73.8215 104.78 74.0782C104.906 74.335 105.034 74.4633 105.16 74.4633H100.207ZM116.811 74.7383C115.177 74.7383 113.871 74.4175 112.891 73.7755C111.929 73.1153 111.449 72.0608 111.449 70.612C111.449 69.6034 111.702 68.7871 112.211 68.1636C112.718 67.54 113.408 67.0815 114.279 66.7881C115.168 66.4762 116.175 66.3203 117.3 66.3203C118.552 66.3203 119.532 66.4672 120.24 66.7606C120.948 67.0539 121.392 67.2558 121.574 67.3658C121.574 66.2287 121.374 65.3943 120.975 64.8623C120.576 64.3306 119.804 64.0646 118.661 64.0646C117.554 64.0646 116.574 64.1747 115.722 64.3948C114.869 64.6148 114.171 64.8715 113.626 65.1651C113.1 65.4584 112.737 65.706 112.537 65.9078V65.0825L112.266 62.3865C112.392 62.3132 112.728 62.194 113.272 62.0289C113.816 61.8638 114.561 61.7079 115.504 61.5612C116.448 61.3961 117.573 61.3136 118.879 61.3136C120.675 61.3136 122.046 61.5795 122.989 62.1114C123.933 62.625 124.577 63.3677 124.921 64.3397C125.284 65.3118 125.466 66.4855 125.466 67.861V72.8128C125.466 73.3263 125.52 73.7022 125.629 73.9406C125.756 74.1607 125.883 74.335 126.01 74.4633H121.601V73.8856L121.656 73.3629L121.601 73.308C121.311 73.6197 120.757 73.9406 119.941 74.2707C119.142 74.5826 118.099 74.7383 116.811 74.7383ZM118.089 71.96C119.214 71.96 120.077 71.8316 120.675 71.5748C121.293 71.2997 121.601 70.9513 121.601 70.5294C121.601 70.1077 121.283 69.7591 120.648 69.484C120.031 69.209 119.187 69.0713 118.117 69.0713C117.082 69.0713 116.347 69.2182 115.912 69.5115C115.495 69.8049 115.286 70.1718 115.286 70.612C115.286 71.1622 115.531 71.5289 116.021 71.7124C116.512 71.8775 117.201 71.96 118.089 71.96ZM127.161 74.4633C127.288 74.4633 127.405 74.335 127.515 74.0782C127.642 73.8215 127.705 73.3997 127.705 72.8128V63.5144C127.705 62.9275 127.642 62.5148 127.515 62.2765C127.405 62.0197 127.288 61.8822 127.161 61.8638C127.959 61.8638 128.776 61.8088 129.61 61.6988C130.445 61.5704 131.098 61.4421 131.57 61.3136V62.9917L131.516 63.3493L131.57 63.4044C131.624 63.276 131.797 63.0468 132.087 62.7167C132.378 62.3865 132.795 62.0747 133.339 61.7813C133.883 61.4695 134.555 61.3136 135.352 61.3136C137.04 61.3136 138.329 61.7996 139.218 62.7716C140.125 63.7437 140.579 65.2658 140.579 67.3383V72.8128C140.579 73.3997 140.633 73.8215 140.742 74.0782C140.87 74.335 140.996 74.4633 141.124 74.4633H136.17C136.297 74.4633 136.415 74.335 136.523 74.0782C136.65 73.8215 136.714 73.3997 136.714 72.8128V67.4209C136.714 66.1186 136.515 65.2384 136.115 64.7798C135.716 64.303 135.207 64.0646 134.591 64.0646C133.81 64.0646 133.113 64.3489 132.496 64.9175C131.879 65.4676 131.57 66.3847 131.57 67.6685V72.8128C131.57 73.3997 131.624 73.8215 131.734 74.0782C131.86 74.335 131.988 74.4633 132.114 74.4633H127.161ZM149.091 74.7383C147.476 74.7383 146.114 74.6467 145.008 74.4633C143.902 74.28 143.139 74.0965 142.722 73.9132V73.0879L142.149 70.3919C142.622 70.7403 143.502 71.0888 144.79 71.4372C146.078 71.7856 147.657 71.96 149.527 71.96C150.379 71.96 150.968 71.8775 151.296 71.7124C151.64 71.5473 151.812 71.2629 151.812 70.8595C151.812 70.5477 151.694 70.3093 151.458 70.1443C151.241 69.9792 150.841 69.8509 150.262 69.7591C149.68 69.6491 148.837 69.5208 147.729 69.3741C146.332 69.1907 145.225 68.9339 144.41 68.6038C143.592 68.2553 143.013 67.8151 142.668 67.2833C142.341 66.733 142.177 66.0637 142.177 65.275C142.177 64.5414 142.35 63.8812 142.695 63.2944C143.057 62.6891 143.675 62.2123 144.545 61.8638C145.434 61.497 146.668 61.3136 148.247 61.3136C149.735 61.3136 151.041 61.4053 152.166 61.5887C153.291 61.7722 154.099 61.9555 154.588 62.1389V62.9643L155.133 65.3851C154.715 65.1099 153.899 64.8258 152.683 64.5323C151.468 64.2389 149.925 64.0921 148.057 64.0921C147.331 64.0921 146.813 64.1655 146.505 64.3122C146.197 64.4589 146.042 64.7156 146.042 65.0825C146.042 65.321 146.141 65.5226 146.342 65.6877C146.542 65.8344 146.932 65.972 147.512 66.1003C148.111 66.2287 149 66.3755 150.179 66.5405C151.721 66.7423 152.883 67.0265 153.663 67.3933C154.443 67.7417 154.97 68.1819 155.242 68.7138C155.513 69.2272 155.65 69.8509 155.65 70.5845C155.65 71.9966 155.123 73.042 154.072 73.7205C153.019 74.3991 151.358 74.7383 149.091 74.7383ZM157.241 74.4633C157.368 74.4633 157.486 74.335 157.595 74.0782C157.721 73.8215 157.785 73.3997 157.785 72.8128V64.3397H155.335V61.5887H158.058L158.084 61.5337C158.031 61.4421 157.922 61.1394 157.758 60.6259C157.595 60.094 157.513 59.4705 157.513 58.7553C157.513 57.3064 157.922 56.261 158.738 55.6191C159.573 54.9773 160.706 54.6562 162.141 54.6562C163.301 54.6562 164.327 54.7205 165.216 54.8488C166.105 54.9589 166.749 55.0781 167.149 55.2065V56.0593L167.693 59.0578C167.365 58.8194 166.939 58.581 166.414 58.3426C165.905 58.0858 165.361 57.8749 164.781 57.7099C164.199 57.5265 163.619 57.4347 163.038 57.4347C162.457 57.4347 162.04 57.5723 161.786 57.8474C161.551 58.1225 161.433 58.526 161.433 59.0578V60.7635C161.433 61.1669 161.468 61.4053 161.541 61.4787C161.614 61.552 161.858 61.5887 162.276 61.5887H166.358C166.232 61.7538 166.105 62.0747 165.977 62.5516C165.869 63.01 165.815 63.6061 165.815 64.3397H161.705V72.8128C161.705 73.3997 161.759 73.8215 161.868 74.0782C161.995 74.335 162.122 74.4633 162.248 74.4633H157.241ZM173.046 74.7383C171.14 74.7383 169.642 74.4725 168.555 73.9406C167.483 73.4088 166.731 72.6477 166.295 71.6573C165.861 70.6487 165.642 69.4474 165.642 68.0535C165.642 65.9811 166.213 64.3397 167.357 63.1293C168.5 61.9189 170.251 61.3136 172.61 61.3136C173.989 61.3136 175.104 61.5062 175.957 61.8913C176.828 62.2765 177.491 62.79 177.944 63.4319C178.398 64.0738 178.706 64.789 178.87 65.5777C179.051 66.3479 179.142 67.1274 179.142 67.916V69.209C179.142 69.1539 178.887 69.099 178.38 69.0439C177.891 68.9706 177.055 68.9339 175.875 68.9339H169.562C169.562 69.9426 169.861 70.7037 170.459 71.2172C171.076 71.7124 172.075 71.96 173.453 71.96C174.615 71.96 175.649 71.8224 176.556 71.5473C177.482 71.2538 178.152 70.9788 178.571 70.722V71.5473L178.843 73.638C178.498 73.8764 177.836 74.124 176.857 74.3808C175.876 74.6192 174.606 74.7383 173.046 74.7383ZM170.569 66.5679H175.277C175.277 66.1646 175.186 65.7702 175.005 65.3851C174.841 65 174.569 64.6882 174.188 64.4498C173.807 64.193 173.281 64.0646 172.61 64.0646C171.612 64.0646 170.895 64.2755 170.459 64.6973C170.024 65.1191 169.807 65.5593 169.807 66.0178C169.807 66.2012 169.861 66.3387 169.97 66.4305C170.078 66.5222 170.278 66.5679 170.569 66.5679ZM180.351 74.4633C180.478 74.4633 180.595 74.335 180.704 74.0782C180.832 73.8215 180.894 73.3997 180.894 72.8128V63.5144C180.894 62.9275 180.832 62.5148 180.704 62.2765C180.595 62.0197 180.478 61.8822 180.351 61.8638C181.149 61.8638 181.965 61.8088 182.8 61.6988C183.636 61.5704 184.288 61.4421 184.76 61.3136V62.4141L184.704 62.8817L184.76 62.9367C184.887 62.735 185.086 62.5148 185.358 62.2765C185.649 62.0197 186.011 61.7996 186.447 61.6163C186.901 61.4145 187.427 61.3136 188.025 61.3136C188.916 61.3136 189.704 61.4421 190.394 61.6988C191.083 61.9372 191.572 62.1847 191.863 62.4415L191.047 66.1279V66.9532C190.774 66.5679 190.402 66.1737 189.931 65.7702C189.478 65.3667 188.969 65.0274 188.407 64.7524C187.862 64.4773 187.3 64.3397 186.719 64.3397C186.066 64.3397 185.576 64.5782 185.249 65.0549C184.922 65.5318 184.76 66.2837 184.76 67.3107V72.8128C184.76 73.3997 184.814 73.8215 184.922 74.0782C185.05 74.335 185.177 74.4633 185.303 74.4633H180.351Z" fill="#67718E"/>
</svg>
