<svg width="240" height="130" viewBox="0 0 240 130" fill="none" xmlns="http://www.w3.org/2000/svg">
<path d="M97.7953 74.4062V74.5851H90.2492V74.4062C91.0972 74.2573 91.4312 74.0485 91.5217 73.3931V63.499C91.5217 61.68 90.8554 60.7858 89.4916 60.7858C89.0407 60.7948 88.6043 60.9439 88.2448 61.2116C87.8852 61.4792 87.6209 61.8519 87.4894 62.2764C87.5513 62.6209 87.582 62.9702 87.5808 63.3202V72.6218C87.5808 73.7247 87.9139 74.1723 88.9423 74.4101V74.589H81.7298V74.4062C82.7598 74.1699 83.0913 73.7208 83.0913 72.6178V63.4951C83.0913 61.6761 82.3938 60.7819 81.0604 60.7819C80.6364 60.7857 80.2244 60.9201 79.8819 61.1661C79.5394 61.4121 79.284 61.7574 79.1512 62.1535V72.6178C79.1512 73.7208 79.4844 74.1684 80.5127 74.4062V74.5851H72.876V74.4062C74.0571 74.1384 74.6634 73.631 74.6634 72.4367V62.9326C74.6634 61.3523 74.2397 60.8749 72.876 60.7558V60.577L79.1488 58.8777V61.68C79.4132 60.825 79.958 60.0804 80.6983 59.5624C81.4386 59.0446 82.3326 58.7827 83.2403 58.8178C85.513 58.8178 86.9377 59.9507 87.3918 61.7997C87.6872 60.9131 88.2656 60.144 89.041 59.6067C89.8164 59.0695 90.7474 58.7928 91.6955 58.8178C94.514 58.8178 95.999 60.607 95.999 63.3202V72.443C96.0075 73.6349 96.6131 74.1424 97.7953 74.4062Z" fill="#67718E"/>
<path d="M113.828 71.3401C113.314 73.7822 111.707 75.0372 109.584 75.0372C109.202 75.0716 108.816 75.0308 108.449 74.917C108.083 74.8034 107.743 74.619 107.45 74.3749C107.156 74.1307 106.915 73.8316 106.741 73.4949C106.566 73.1582 106.462 72.7908 106.433 72.4139L106.373 72.1774C106.095 73.042 105.534 73.7918 104.778 74.3093C104.021 74.8268 103.111 75.0829 102.191 75.0372C101.671 75.077 101.147 75.0101 100.655 74.8405C100.162 74.6709 99.7097 74.4024 99.3282 74.0521C98.9466 73.7017 98.6428 73.2771 98.4366 72.8053C98.2303 72.3334 98.1253 71.8245 98.13 71.3109C98.13 68.6575 100.313 66.9283 103.797 66.2122L106.313 65.7056V65.0754C106.313 62.7797 105.464 61.2001 102.918 61.2001C100.949 61.2001 99.555 62.1243 98.8875 64.4498L98.6475 64.39C99.1275 60.9615 101.435 58.8147 105.011 58.8147C109.043 58.8147 110.8 61.349 110.8 65.1651V71.1573C110.8 72.2011 111.315 72.7375 111.982 72.7375C112.558 72.7375 113.224 72.4099 113.558 71.307L113.828 71.3401ZM106.313 71.6685V66.4501L105.131 66.6588C102.767 67.1362 102.313 68.5969 102.313 70.0575C102.313 71.5779 103.071 72.7706 104.525 72.7706C104.903 72.7989 105.281 72.7071 105.603 72.5089C105.924 72.3105 106.174 72.016 106.313 71.6685Z" fill="#67718E"/>
<path d="M130.286 74.4071V74.5859H122.649V74.4071C123.65 74.1707 124.011 73.7217 124.011 72.6187V63.5297C124.011 61.7107 123.314 60.7866 121.89 60.7866C121.406 60.7826 120.933 60.919 120.529 61.1789C120.125 61.4387 119.807 61.8105 119.617 62.2472V72.6227C119.617 73.7256 119.95 74.1731 120.979 74.411V74.5898H113.342V74.4071C114.524 74.1392 115.131 73.6318 115.131 72.4375V62.9334C115.131 61.3531 114.706 60.8756 113.342 60.7567V60.5778L119.616 58.8786V61.802C119.923 60.8926 120.526 60.1078 121.331 59.5685C122.138 59.0295 123.1 58.7659 124.073 58.8186C126.956 58.8186 128.498 60.5519 128.498 63.3502V72.4438C128.499 73.6357 129.105 74.1432 130.286 74.4071Z" fill="#67718E"/>
<path d="M140.592 71.0715C139.926 73.2475 138.289 75.0366 135.652 75.0366C133.106 75.0366 131.894 73.4563 131.894 71.1314V59.9209H130.136V59.772C132.551 58.4331 134.648 56.604 136.289 54.4062H136.41V59.3253H139.471V59.9209H136.406V70.4452C136.406 71.8168 136.983 72.7409 138.103 72.7409C138.625 72.7401 139.13 72.5657 139.537 72.2462C139.944 71.9268 140.229 71.481 140.346 70.9817L140.592 71.0715Z" fill="#67718E"/>
<path d="M153.17 69.1938C152.411 73.4866 149.654 75.037 147.017 75.037C143.501 75.037 140.29 72.3537 140.29 67.2259C140.29 62.3366 143.048 58.8184 147.2 58.8184C150.139 58.8184 153.171 60.6374 153.14 65.5565H143.805C144.109 69.3726 146.108 71.4894 149.049 71.4894C149.871 71.5639 150.697 71.3748 151.401 70.9503C152.105 70.5258 152.651 69.8886 152.958 69.134L153.17 69.1938ZM143.774 64.4803V64.808H149.017C149.047 60.992 148.047 59.6503 146.534 59.6503C144.835 59.6534 143.774 61.5016 143.774 64.4803Z" fill="#67718E"/>
<path d="M164.777 58.8184V63.1119H164.626C164.13 62.8978 163.59 62.8055 163.05 62.8432C161.08 62.8432 159.776 63.8871 159.776 67.8521V72.4435C159.776 73.7827 160.535 74.2019 162.17 74.413V74.5919H153.502V74.4067C154.685 74.1388 155.291 73.6315 155.291 72.4372V63.201C155.291 61.5016 154.836 60.9053 153.502 60.7863V60.6075L159.594 58.8783V65.5565H159.746C159.987 60.7564 161.807 58.8184 164.444 58.8184H164.777Z" fill="#67718E"/>
<path d="M163.444 72.5325C163.454 71.8825 163.724 71.2624 164.194 70.8056C164.664 70.349 165.298 70.0921 165.959 70.0903C166.614 70.0989 167.241 70.3589 167.705 70.8151C168.169 71.2713 168.433 71.8875 168.442 72.5325C168.445 73.1843 168.186 73.8107 167.72 74.2746C167.255 74.7385 166.621 75.0019 165.959 75.0071C165.628 75.0079 165.301 74.9445 164.995 74.8204C164.69 74.6964 164.412 74.514 164.179 74.2841C163.944 74.0542 163.759 73.7811 163.633 73.4805C163.507 73.18 163.443 72.8577 163.444 72.5325Z" fill="#67718E"/>
</svg>
