<svg width="240" height="131" viewBox="0 0 240 131" fill="none" xmlns="http://www.w3.org/2000/svg">
<path d="M86.9586 68.1241L90.3099 67.1992C90.3652 67.9449 90.7101 68.6383 91.2697 69.1285C91.9248 69.6779 92.7616 69.957 93.6121 69.9096C94.2459 69.946 94.874 69.7728 95.4018 69.4163C95.6006 69.2828 95.7628 69.1023 95.8762 68.8906C95.9887 68.6787 96.0487 68.4422 96.0497 68.2016C96.0506 68.0022 96.0084 67.8051 95.925 67.6242C95.8415 67.4434 95.7206 67.2832 95.5687 67.1553C95.1562 66.8253 94.6622 66.6136 94.1409 66.5423L91.7342 65.9966C90.4968 65.7664 89.365 65.1423 88.5043 64.2159C87.7599 63.3744 87.3564 62.281 87.3742 61.1532C87.3736 60.4491 87.5289 59.7536 87.8286 59.1179C88.1283 58.4821 88.565 57.9219 89.1067 57.4784C90.2792 56.4494 91.7917 55.9023 93.3447 55.9452C94.1334 55.9362 94.92 56.0461 95.6765 56.2713C96.285 56.4446 96.8615 56.7163 97.3837 57.0758C97.8131 57.3879 98.1937 57.7636 98.5125 58.1903C98.7937 58.5546 99.0281 58.9533 99.2109 59.377C99.3543 59.727 99.4565 60.093 99.5147 60.4673L96.33 61.3923C96.2953 61.1267 96.2184 60.8685 96.1031 60.6271C95.97 60.35 95.8012 60.0922 95.6006 59.861C95.3512 59.5832 95.039 59.3702 94.6912 59.2396C94.2618 59.0728 93.8043 58.9915 93.3447 59.0004C92.7388 58.978 92.1448 59.1738 91.6685 59.5527C91.4642 59.7047 91.2977 59.9026 91.182 60.1306C91.0663 60.3588 91.0048 60.611 91.0022 60.8673C90.9998 61.07 91.0384 61.2709 91.1158 61.4579C91.1931 61.6449 91.3075 61.8141 91.452 61.9547C91.7834 62.2734 92.203 62.4827 92.6552 62.5547L95.1065 63.0638C96.3862 63.2758 97.5693 63.8813 98.4946 64.7979C99.2681 65.6074 99.6918 66.6933 99.6731 67.8176C99.6731 68.495 99.5428 69.1657 99.2887 69.7928C99.0262 70.4407 98.6522 71.0365 98.1843 71.5531C97.6528 72.1226 97.0021 72.5646 96.2793 72.8462C95.4393 73.1838 94.5412 73.3511 93.6371 73.3385C92.6207 73.3547 91.6106 73.1752 90.6606 72.8097C89.8762 72.5197 89.1667 72.0544 88.5857 71.4485C88.1207 70.9518 87.7315 70.3882 87.4307 69.776C87.1797 69.2572 87.0199 68.6982 86.9586 68.1241Z" fill="#67718E"/>
<path d="M99.6825 59.89V56.4573H100.516C100.86 56.4823 101.205 56.4318 101.528 56.3093C101.852 56.1866 102.144 55.9949 102.387 55.7471C102.826 55.2282 103.053 54.5601 103.021 53.8785V51.3989H106.52V56.4573H109.886V59.89H106.52V67.5291C106.493 67.8124 106.523 68.0983 106.609 68.3696C106.694 68.6411 106.833 68.8924 107.016 69.1089C107.457 69.4724 108.022 69.6475 108.589 69.5966C109.037 69.5976 109.483 69.5531 109.923 69.464V72.6706C109.16 72.9442 108.351 73.066 107.542 73.0293C106.891 73.0656 106.239 72.9691 105.625 72.7456C105.012 72.5221 104.45 72.1764 103.972 71.7288C103.522 71.252 103.176 70.6875 102.952 70.0702C102.727 69.4528 102.63 68.7955 102.667 68.1391V59.89H99.6825Z" fill="#67718E"/>
<path d="M110.845 68.4386C110.817 67.8102 110.923 67.1831 111.157 66.5997C111.389 66.0164 111.744 65.4903 112.195 65.0572C113.189 64.1712 114.427 63.6139 115.743 63.4606L119.908 62.8195C120.71 62.7174 121.111 62.3489 121.111 61.7142C121.119 61.3934 121.055 61.0751 120.922 60.7834C120.788 60.4919 120.591 60.2349 120.345 60.0324C119.678 59.5488 118.864 59.3171 118.045 59.3784C117.189 59.334 116.349 59.6278 115.704 60.1979C115.123 60.7425 114.765 61.4877 114.701 62.286L111.184 61.4984C111.258 60.7368 111.479 59.9971 111.835 59.3221C112.192 58.6469 112.678 58.0494 113.264 57.564C114.589 56.4535 116.273 55.8771 117.994 55.9457C119.084 55.9256 120.169 56.0973 121.2 56.4531C122.03 56.7329 122.78 57.2119 123.386 57.849C123.914 58.425 124.319 59.1037 124.578 59.8437C124.842 60.6188 124.972 61.4338 124.965 62.2534V70.2035C124.952 71.0838 125.022 71.9633 125.176 72.8299H121.522C121.365 72.1464 121.303 71.4442 121.337 70.7435C120.85 71.5061 120.187 72.1375 119.404 72.5833C118.465 73.1114 117.403 73.3726 116.33 73.339C114.871 73.4041 113.445 72.8861 112.361 71.8974C111.879 71.4632 111.495 70.9299 111.233 70.3335C110.972 69.7369 110.84 69.0908 110.845 68.4386ZM114.701 68.1582C114.697 68.4386 114.75 68.7168 114.858 68.975C114.966 69.2334 115.126 69.4659 115.328 69.6578C115.564 69.871 115.838 70.0352 116.137 70.1405C116.435 70.2461 116.752 70.291 117.067 70.2725C117.591 70.2786 118.113 70.2037 118.615 70.0503C119.081 69.9035 119.515 69.6696 119.896 69.3607C120.307 69.0126 120.617 68.5586 120.793 68.047C121.018 67.4011 121.126 66.7193 121.111 66.0346V65.2954L116.883 65.9495C116.298 66.0261 115.747 66.2739 115.3 66.6624C115.099 66.8528 114.941 67.0849 114.838 67.3426C114.735 67.6004 114.688 67.8776 114.701 68.1554V68.1582Z" fill="#67718E"/>
<path d="M127.571 72.8324V56.4575H131.298V58.4981C131.759 57.6851 132.458 57.037 133.301 56.6434C134.166 56.209 135.118 55.9826 136.085 55.9819C137.117 55.963 138.137 56.2126 139.046 56.7069C139.905 57.1788 140.587 57.9205 140.989 58.8194C141.522 57.9048 142.295 57.156 143.222 56.6555C144.148 56.155 145.193 55.9219 146.243 55.9819C146.958 55.9766 147.668 56.1015 148.338 56.351C148.997 56.6004 149.602 56.974 150.122 57.4515C150.696 57.9941 151.133 58.6667 151.396 59.4137C151.723 60.3072 151.882 61.2541 151.867 62.2063V72.8324H148.239V62.7978C148.283 61.9099 148.007 61.0359 147.46 60.3386C147.165 60.0176 146.801 59.7677 146.397 59.6076C145.991 59.4476 145.556 59.3813 145.124 59.4137C144.668 59.398 144.215 59.4837 143.795 59.6648C143.376 59.846 143.002 60.1182 142.698 60.4619C142.07 61.176 141.734 62.1062 141.764 63.0612V72.8324H137.909V62.7978C137.95 61.9141 137.677 61.0446 137.138 60.3471C136.843 60.022 136.478 59.769 136.072 59.6071C135.666 59.4451 135.229 59.3788 134.794 59.4128C134.336 59.3938 133.882 59.476 133.459 59.6535C133.037 59.8311 132.659 60.0997 132.351 60.4405C131.723 61.1644 131.396 62.1033 131.433 63.0641V72.8351L127.571 72.8324Z" fill="#67718E"/>
<path d="M154.643 79.2237V56.4571H158.402V58.6509C158.876 57.8529 159.57 57.2112 160.399 56.8038C161.374 56.3057 162.455 56.0571 163.546 56.0797C164.581 56.0294 165.614 56.2182 166.567 56.6317C167.518 57.0452 168.364 57.6725 169.04 58.466C170.422 60.2046 171.133 62.3915 171.039 64.6193C171.127 66.8749 170.382 69.083 168.95 70.8158C168.267 71.6136 167.415 72.2462 166.457 72.6667C165.499 73.0871 164.459 73.2848 163.415 73.245C162.394 73.2649 161.38 73.0482 160.453 72.6116C159.674 72.2551 159 71.6996 158.497 70.9999V79.2218L154.643 79.2237ZM158.467 64.6222C158.403 65.9841 158.836 67.3223 159.684 68.3829C160.067 68.8445 160.546 69.2129 161.09 69.4606C161.632 69.7081 162.223 69.8284 162.818 69.8124C163.415 69.8295 164.008 69.7106 164.553 69.4645C165.097 69.2185 165.579 68.8517 165.966 68.3913C166.817 67.3288 167.25 65.987 167.182 64.6222C167.246 63.2798 166.816 61.9612 165.973 60.9203C165.585 60.4628 165.098 60.0995 164.552 59.8568C164.005 59.6143 163.412 59.4988 162.815 59.5189C162.221 59.5023 161.631 59.6207 161.089 59.8653C160.546 60.1101 160.065 60.4748 159.682 60.9325C158.839 61.9677 158.407 63.2812 158.467 64.6193V64.6222Z" fill="#67718E"/>
<path d="M171.321 68.1241L174.672 67.1992C174.728 67.9449 175.073 68.6383 175.632 69.1285C176.288 69.6781 177.125 69.9571 177.976 69.9096C178.609 69.9458 179.238 69.7727 179.765 69.4163C179.963 69.2828 180.126 69.1023 180.239 68.8906C180.352 68.6787 180.412 68.4422 180.413 68.2016C180.413 68.0022 180.37 67.8051 180.288 67.6242C180.204 67.4434 180.083 67.2832 179.932 67.1553C179.519 66.8253 179.025 66.6134 178.504 66.5423L176.098 65.9966C174.861 65.7666 173.729 65.1425 172.869 64.2159C172.124 63.375 171.72 62.2812 171.737 61.1532C171.737 60.4491 171.893 59.7536 172.192 59.1179C172.492 58.4821 172.929 57.9219 173.47 57.4784C174.643 56.4494 176.155 55.9023 177.708 55.9452C178.497 55.9362 179.283 56.0461 180.04 56.2713C180.649 56.4444 181.225 56.7161 181.747 57.0758C182.177 57.3881 182.558 57.7638 182.877 58.1903C183.158 58.5548 183.392 58.9535 183.575 59.377C183.718 59.727 183.819 60.093 183.878 60.4673L180.695 61.3923C180.659 61.1268 180.582 60.8685 180.468 60.6271C180.335 60.3501 180.164 60.0924 179.963 59.861C179.714 59.5832 179.403 59.3702 179.055 59.2396C178.626 59.0727 178.168 58.9914 177.708 59.0004C177.103 58.978 176.509 59.1739 176.033 59.5527C175.829 59.7045 175.661 59.9023 175.546 60.1305C175.43 60.3586 175.368 60.6109 175.366 60.8673C175.364 61.07 175.402 61.2709 175.479 61.4579C175.556 61.6449 175.671 61.8141 175.815 61.9547C176.147 62.2733 176.567 62.4825 177.018 62.5547L179.469 63.0638C180.749 63.2755 181.933 63.8813 182.859 64.7979C183.631 65.6077 184.055 66.6935 184.036 67.8176C184.036 68.495 183.906 69.1659 183.652 69.7928C183.389 70.4408 183.015 71.0368 182.546 71.5531C182.016 72.1227 181.365 72.5646 180.641 72.8462C179.802 73.1838 178.905 73.351 178 73.3385C176.984 73.3548 175.973 73.1753 175.024 72.8097C174.239 72.5196 173.53 72.0542 172.95 71.4485C172.485 70.9518 172.095 70.3882 171.794 69.776C171.544 69.257 171.383 68.6981 171.321 68.1241Z" fill="#67718E"/>
<path d="M58.9593 56.1587C58.9762 56.114 58.9882 56.0678 58.9954 56.0205C59.1124 55.1802 59.5408 54.4159 60.194 53.8818C60.6567 53.5096 61.21 53.2697 61.796 53.1876C61.8348 53.1818 61.873 53.172 61.9098 53.1586C62.0248 53.1466 62.1404 53.1407 62.256 53.1409C63.054 53.1362 63.8262 53.4264 64.4268 53.9568C65.0276 54.4874 65.4151 55.2214 65.5166 56.0205C65.5273 56.1472 65.5853 56.2651 65.6788 56.3504C65.7721 56.4357 65.8941 56.4821 66.02 56.4802H66.1395C66.2655 56.4825 66.3877 56.4363 66.4813 56.3508C66.5748 56.2655 66.6326 56.1474 66.643 56.0205C66.74 55.2233 67.1233 54.4899 67.7204 53.9592C68.3174 53.4283 69.0867 53.1372 69.8822 53.1409C70.6802 53.1362 71.4523 53.4264 72.053 53.9568C72.6538 54.4874 73.0413 55.2214 73.1428 56.0205C73.1534 56.1472 73.2114 56.2651 73.3049 56.3504C73.3983 56.4357 73.5203 56.4821 73.6462 56.4802H73.7388C73.8648 56.4825 73.9871 56.4363 74.0806 56.3508C74.1741 56.2655 74.2319 56.1474 74.2423 56.0205C74.343 55.225 74.7276 54.4938 75.3238 53.9639C75.92 53.4338 76.6871 53.1412 77.4816 53.1409C78.34 53.1408 79.1643 53.4802 79.7777 54.0865C80.3794 54.7069 80.716 55.5409 80.7152 56.4092C80.7153 57.2114 80.4255 57.9862 79.9003 58.5882C79.375 59.1902 78.6503 59.5781 77.8619 59.6792C77.7363 59.6897 77.6192 59.7481 77.5347 59.8425C77.45 59.937 77.4043 60.0603 77.4065 60.1876V60.281C77.4046 60.4082 77.4507 60.5312 77.5352 60.6256C77.6197 60.72 77.7364 60.7784 77.8619 60.7892C78.6536 60.8912 79.3809 61.2823 79.9065 61.8886C80.4323 62.4947 80.7199 63.2744 80.7152 64.08C80.719 64.8832 80.4304 65.6599 79.9045 66.2626C79.3785 66.8655 78.6517 67.2524 77.8619 67.35C77.7363 67.3606 77.6192 67.4189 77.5347 67.5133C77.45 67.6077 77.4043 67.7311 77.4065 67.8584V67.9799C77.4049 68.1069 77.4509 68.23 77.5354 68.3242C77.6199 68.4184 77.7365 68.477 77.8619 68.4881C78.6536 68.5901 79.3809 68.9811 79.9065 69.5874C80.4323 70.1936 80.7199 70.973 80.7152 71.7788C80.7152 71.8871 80.7098 71.9937 80.6996 72.0992C80.6824 72.144 80.6699 72.1902 80.6625 72.2375C80.5463 73.0779 80.1182 73.8424 79.4649 74.3761C79.0018 74.7485 78.4482 74.9883 77.8619 75.0704C77.8236 75.0766 77.7859 75.0859 77.7491 75.0984C77.6338 75.1109 77.5179 75.117 77.402 75.117C76.604 75.1217 75.832 74.8315 75.2314 74.301C74.6309 73.7706 74.2436 73.0366 74.1423 72.2375C74.1315 72.1109 74.0736 71.993 73.9802 71.9076C73.8868 71.8223 73.7648 71.776 73.6388 71.7779H73.5185C73.3924 71.7755 73.2703 71.8218 73.1767 71.9071C73.0831 71.9926 73.0253 72.1106 73.0151 72.2375C72.9182 73.0347 72.5349 73.7684 71.9378 74.2992C71.3407 74.83 70.5713 75.121 69.7758 75.117C68.9777 75.1218 68.2056 74.8316 67.6049 74.3011C67.0043 73.7706 66.6166 73.0366 66.5153 72.2375C66.5044 72.1109 66.4465 71.993 66.3531 71.9076C66.2597 71.8223 66.1377 71.776 66.0118 71.7779H65.9192C65.7931 71.7755 65.6709 71.8218 65.5774 71.9071C65.4839 71.9926 65.426 72.1106 65.4156 72.2375C65.3152 73.0333 64.9308 73.7645 64.3346 74.2947C63.7382 74.8248 62.971 75.1171 62.1764 75.117C61.3162 75.1184 60.4898 74.7788 59.8746 74.1715C59.2734 73.5509 58.9371 72.717 58.938 71.8489C58.938 71.0467 59.2275 70.2721 59.7527 69.6702C60.2778 69.0682 61.0023 68.6801 61.7905 68.5787C61.9163 68.5685 62.0336 68.5103 62.1184 68.4159C62.2031 68.3214 62.2491 68.1979 62.2468 68.0704V67.9771C62.2483 67.8498 62.2022 67.7266 62.1176 67.6323C62.0329 67.538 61.916 67.4796 61.7905 67.4687C60.9989 67.3666 60.2719 66.9754 59.7464 66.3692C59.221 65.7631 58.9333 64.9836 58.938 64.1781C58.9342 63.3749 59.2226 62.5982 59.7482 61.9954C60.2741 61.3926 61.0007 61.0056 61.7905 60.9079C61.9163 60.8977 62.0336 60.8395 62.1184 60.7451C62.2031 60.6507 62.2491 60.5271 62.2468 60.3997V60.2782C62.2483 60.151 62.2022 60.0278 62.1176 59.9335C62.0329 59.8392 61.916 59.7808 61.7905 59.7699C60.9989 59.6677 60.2719 59.2766 59.7464 58.6704C59.221 58.0642 58.9333 57.2848 58.938 56.4793C58.938 56.3709 58.9436 56.2644 58.9538 56.1587H58.9593ZM61.7988 52.1197C61.7587 52.1092 61.7179 52.102 61.6767 52.0981C60.5855 52.2518 59.5919 52.8153 58.8946 53.6762C58.3678 54.3098 58.0291 55.0805 57.9173 55.8999C57.9199 55.9355 57.9255 55.9709 57.9339 56.0056C57.9197 56.1467 57.9126 56.2887 57.9126 56.4307C57.9193 57.2185 58.1338 57.9902 58.5342 58.6666C58.9345 59.3428 59.5063 59.8991 60.1903 60.2782C59.506 60.6574 58.9343 61.2139 58.5339 61.8903C58.1337 62.5667 57.9192 63.3387 57.9126 64.1267C57.9193 64.9145 58.1338 65.6863 58.5342 66.3625C58.9345 67.0388 59.5063 67.5951 60.1903 67.9742C59.502 68.3486 58.9269 68.9039 58.5259 69.5815C58.1248 70.2589 57.913 71.0334 57.9126 71.8226C57.9126 71.945 57.9181 72.0656 57.9274 72.1861C57.9142 72.2418 57.9099 72.2992 57.9145 72.3562C58.0416 73.3181 58.4803 74.2106 59.162 74.8948C59.8397 75.583 60.7238 76.0259 61.6767 76.1542C61.7335 76.1589 61.7906 76.1545 61.8461 76.1412C61.9645 76.1514 62.0848 76.1561 62.206 76.1561C62.9877 76.1558 63.7547 75.9419 64.4258 75.5371C65.0968 75.1321 65.6468 74.5515 66.0172 73.8567C66.3927 74.5474 66.9436 75.1246 67.6136 75.5288C68.2835 75.933 69.0481 76.1495 69.8285 76.1561C70.6091 76.1497 71.3738 75.9332 72.044 75.5291C72.714 75.1249 73.2652 74.5475 73.6407 73.8567C74.016 74.5474 74.5671 75.1246 75.237 75.5288C75.907 75.933 76.6715 76.1495 77.4519 76.1561C77.5898 76.1561 77.7296 76.1495 77.861 76.1365C77.9013 76.1471 77.9426 76.154 77.9841 76.157C79.0734 76.0034 80.0651 75.44 80.7606 74.5799C81.2877 73.9465 81.6269 73.1757 81.7389 72.3562C81.7361 72.3206 81.7305 72.2853 81.7223 72.2506C81.7361 72.1105 81.7425 71.9703 81.7425 71.8256C81.7361 71.0377 81.5218 70.2661 81.1214 69.5898C80.7213 68.9135 80.1498 68.3571 79.4658 67.978C80.1499 67.5987 80.7215 67.0422 81.1218 66.3658C81.5219 65.6893 81.7363 64.9174 81.7425 64.1296C81.7361 63.3418 81.5218 62.57 81.1214 61.8938C80.7213 61.2175 80.1498 60.6611 79.4658 60.282C80.1539 59.9074 80.7289 59.3521 81.1297 58.6745C81.5306 57.997 81.7423 57.2226 81.7425 56.4335C81.7425 56.3111 81.7379 56.1896 81.7287 56.07C81.741 56.0143 81.7453 55.957 81.7417 55.8999C81.6148 54.9377 81.1758 54.0451 80.4932 53.3614C79.8162 52.6728 78.9322 52.2299 77.9795 52.1019C77.9227 52.0972 77.8655 52.1016 77.8101 52.115C77.6917 52.1047 77.5712 52.1 77.45 52.1C76.6683 52.1004 75.9013 52.3142 75.2303 52.7191C74.5593 53.124 74.0094 53.7046 73.6388 54.3994C73.2633 53.7086 72.7122 53.1313 72.0421 52.7271C71.372 52.323 70.6072 52.1065 69.8266 52.1C69.0463 52.1066 68.2817 52.3231 67.6118 52.7273C66.9418 53.1315 66.3908 53.7087 66.0154 54.3994C65.6399 53.7086 65.0888 53.1313 64.4187 52.7271C63.7485 52.323 62.9838 52.1065 62.2033 52.1C62.0653 52.1 61.9256 52.1066 61.7942 52.1197H61.7988Z" fill="#67718E"/>
<path d="M78.0085 76.977L77.9234 76.9704C77.8883 76.9704 77.8522 76.9629 77.817 76.9583C77.6967 76.9667 77.5746 76.9714 77.4533 76.9714C76.5144 76.9701 75.5941 76.7064 74.7943 76.2099C74.3684 75.9469 73.9818 75.6241 73.6457 75.2513C73.162 75.7888 72.5732 76.2192 71.9165 76.5153C71.2596 76.8113 70.5491 76.9666 69.8299 76.9714C68.891 76.9701 67.9707 76.7064 67.1709 76.2099C66.7464 75.9473 66.3607 75.6256 66.0251 75.2542C65.6923 75.6262 65.3083 75.9481 64.8849 76.2099C64.079 76.7079 63.1524 76.9714 62.2074 76.9714C62.1 76.9714 61.9918 76.9714 61.8844 76.9612C61.7953 76.9723 61.7054 76.9742 61.616 76.9667H61.5929H61.5698C61.0018 76.8898 60.4504 76.7184 59.938 76.4594C59.44 76.2069 58.986 75.8748 58.5933 75.4756C58.1979 75.0795 57.8691 74.621 57.6197 74.118C57.3623 73.601 57.1921 73.0443 57.1163 72.4708V72.4474V72.424C57.1097 72.3337 57.1116 72.2431 57.1218 72.1532C57.1153 72.0448 57.1125 71.9354 57.1125 71.828C57.1121 70.8741 57.3728 69.9386 57.8659 69.125C58.1249 68.6967 58.4441 68.3087 58.8135 67.973C58.4449 67.6346 58.1259 67.2452 57.8659 66.8163C57.3744 66.0087 57.1135 65.0797 57.1125 64.1319C57.1172 63.4059 57.2709 62.6887 57.564 62.0257C57.8571 61.3627 58.2833 60.7681 58.8154 60.2797C58.4461 59.9406 58.1264 59.5502 57.8659 59.1202C57.3744 58.3128 57.1135 57.3837 57.1125 56.4359C57.1125 56.3061 57.1172 56.1753 57.1272 56.0454C57.1236 56.0193 57.1208 55.9931 57.1189 55.967L57.1125 55.881L57.1236 55.7949C57.2556 54.8249 57.6563 53.9123 58.2795 53.1622C59.104 52.1411 60.2809 51.4734 61.5734 51.2934L61.6585 51.2812L61.7446 51.2878C61.7799 51.2878 61.815 51.2953 61.8502 51.3C61.9714 51.2916 62.0935 51.2869 62.2138 51.2869C63.1531 51.2886 64.0736 51.552 64.8738 52.0484C65.2993 52.3115 65.6858 52.6343 66.0214 53.007C66.505 52.4695 67.0939 52.0391 67.7507 51.7431C68.4075 51.447 69.118 51.2917 69.8373 51.2869C70.7765 51.2886 71.697 51.552 72.4972 52.0484C72.9218 52.3111 73.3074 52.6328 73.6429 53.0042C73.9757 52.6321 74.3597 52.3102 74.7832 52.0484C75.5891 51.5504 76.5157 51.2868 77.4607 51.2869C77.5681 51.2869 77.6763 51.2869 77.7828 51.2972C77.872 51.2859 77.9624 51.2841 78.052 51.2916H78.0744H78.0974C78.6654 51.3683 79.2168 51.5397 79.7291 51.7988C80.2275 52.051 80.682 52.3833 81.0748 52.7828C81.4706 53.1785 81.7996 53.6371 82.0484 54.1402C82.3051 54.6575 82.475 55.2142 82.551 55.7875V55.8109V55.8342C82.5576 55.9246 82.5555 56.0153 82.5444 56.1052C82.551 56.2136 82.5547 56.3219 82.5547 56.4303C82.5548 57.3843 82.2938 58.3197 81.8004 59.1334C81.5417 59.5616 81.2228 59.9496 80.8536 60.2853C81.2222 60.6234 81.5409 61.013 81.8004 61.4421C82.2923 62.2494 82.5534 63.1785 82.5547 64.1263C82.5501 64.8525 82.3962 65.5698 82.103 66.2329C81.8097 66.896 81.3834 67.4903 80.8508 67.9786C81.2201 68.3173 81.5398 68.7074 81.8004 69.1372C82.2921 69.9449 82.5531 70.8742 82.5547 71.8223C82.5547 71.9523 82.5501 72.0831 82.5399 72.2121C82.5399 72.2382 82.5463 72.2653 82.5482 72.2914L82.5547 72.3773L82.5427 72.4633C82.411 73.4332 82.0107 74.346 81.3877 75.0963C80.5629 76.1173 79.3856 76.7851 78.0928 76.9648L78.0085 76.977ZM74.947 72.141C75.0242 72.7422 75.3169 73.294 75.7699 73.6921C76.2228 74.0902 76.8046 74.3068 77.4052 74.3011C77.4709 74.3011 77.5357 74.3012 77.6005 74.2937C77.644 74.2824 77.6875 74.2731 77.7319 74.2657H77.7559C78.196 74.2033 78.6116 74.0229 78.9591 73.7434C79.4525 73.3408 79.7757 72.764 79.8634 72.1298V72.1064C79.8724 72.0509 79.8845 71.9961 79.8995 71.942C79.8995 71.8887 79.905 71.8345 79.905 71.7813C79.9104 71.1748 79.6957 70.5874 79.3013 70.13C78.9068 69.6726 78.36 69.3769 77.7642 69.2987C77.4424 69.2648 77.1446 69.1114 76.9286 68.868C76.7128 68.6247 76.5943 68.309 76.5963 67.9822V67.8608C76.5938 67.541 76.7072 67.2313 76.9154 66.9904C77.1237 66.7493 77.4121 66.5937 77.7264 66.5527H77.7495H77.7735C78.3638 66.475 78.9057 66.1824 79.2976 65.73C79.6896 65.2778 79.9044 64.6965 79.9022 64.0955C79.9077 63.4891 79.6929 62.9017 79.2984 62.4443C78.9039 61.9868 78.3572 61.6912 77.7615 61.613C77.4397 61.5791 77.1418 61.4256 76.9259 61.1823C76.71 60.939 76.5916 60.6232 76.5935 60.2965V60.2032C76.5909 59.8833 76.7045 59.5736 76.9127 59.3327C77.1209 59.0916 77.4093 58.936 77.7235 58.8951H77.7466H77.7707C78.3584 58.8112 78.8968 58.5171 79.2877 58.0659C79.6783 57.6149 79.8955 57.037 79.8995 56.4378C79.9009 55.7854 79.6494 55.1584 79.1988 54.6907C78.7356 54.2355 78.1144 53.9817 77.4681 53.9833C76.8728 53.9811 76.297 54.198 75.8489 54.5936C75.4008 54.9892 75.1111 55.5364 75.0339 56.1323V56.1566V56.18C74.9935 56.4971 74.8393 56.7883 74.6005 56.9986C74.3619 57.2087 74.0551 57.3234 73.7383 57.3207H73.6457C73.3221 57.3228 73.0091 57.2032 72.768 56.9852C72.5268 56.7674 72.3745 56.4667 72.3408 56.1416C72.2634 55.5402 71.9705 54.9883 71.5175 54.5901C71.0643 54.1918 70.4825 53.9751 69.8817 53.9806C69.2864 53.9782 68.7108 54.1952 68.2626 54.5909C67.8144 54.9865 67.5247 55.5336 67.4477 56.1295V56.1538V56.1772C67.4071 56.4943 67.2529 56.7855 67.0142 56.9958C66.7754 57.2059 66.4687 57.3205 66.1519 57.3179H66.0325C65.7088 57.32 65.396 57.2003 65.1549 56.9824C64.9136 56.7646 64.7613 56.4638 64.7275 56.1389C64.6502 55.5374 64.3573 54.9855 63.9042 54.5873C63.451 54.1891 62.8691 53.9723 62.2685 53.9778C62.2036 53.9778 62.138 53.9777 62.0731 53.9862C62.0305 53.9975 61.9863 54.0067 61.9419 54.0142H61.9177C61.4775 54.0762 61.0619 54.2566 60.7146 54.5365C60.2206 54.9385 59.8973 55.5156 59.8104 56.1501V56.1734C59.8013 56.2288 59.7892 56.2837 59.7743 56.3378C59.7743 56.3911 59.7697 56.4453 59.7697 56.4985C59.7641 57.1048 59.9788 57.6922 60.373 58.1496C60.7673 58.607 61.3138 58.9028 61.9093 58.981C62.2312 59.0149 62.5291 59.1684 62.7449 59.4117C62.9609 59.6552 63.0793 59.9708 63.0774 60.2975V60.419C63.08 60.7387 62.9665 61.0482 62.7585 61.2892C62.5506 61.5302 62.2623 61.6859 61.9483 61.727H61.9242H61.9001C61.3097 61.8046 60.7677 62.0971 60.3758 62.5495C59.9838 63.002 59.769 63.5833 59.7714 64.1842C59.7658 64.7905 59.9804 65.3778 60.3747 65.8351C60.769 66.2924 61.3157 66.588 61.9112 66.6658C62.2331 66.7002 62.5309 66.854 62.7467 67.0973C62.9624 67.3408 63.081 67.6566 63.0792 67.9832V68.0767C63.0819 68.3963 62.9684 68.7059 62.7604 68.9468C62.5524 69.1879 62.2642 69.3436 61.9501 69.3847H61.926H61.902C61.3142 69.4686 60.7759 69.7628 60.3851 70.2139C59.9944 70.665 59.7773 71.2427 59.7733 71.842C59.7716 72.4942 60.0232 73.121 60.4739 73.5882C60.9369 74.0437 61.5582 74.2976 62.2045 74.2956C62.7982 74.2913 63.3703 74.0721 63.8172 73.6776C64.264 73.2832 64.5555 72.7399 64.6387 72.1466V72.1223L64.6434 72.098C64.684 71.781 64.8383 71.49 65.077 71.2799C65.3157 71.07 65.6225 70.9554 65.939 70.9581H66.0316C66.3552 70.9561 66.6682 71.0757 66.9094 71.2937C67.1505 71.5116 67.3029 71.8122 67.3365 72.1372C67.4139 72.7385 67.7069 73.2904 68.16 73.6884C68.6131 74.0865 69.195 74.3032 69.7956 74.2974C70.3911 74.3 70.9669 74.083 71.415 73.6873C71.8631 73.2917 72.1528 72.7445 72.2298 72.1485V72.1242L72.2344 72.1009C72.2748 71.7836 72.429 71.4923 72.6678 71.2822C72.9065 71.072 73.2132 70.9573 73.53 70.9599H73.6504C73.9729 70.9601 74.2839 71.0809 74.5235 71.299C74.7629 71.5172 74.9139 71.8171 74.947 72.141Z" fill="#67718E"/>
<path d="M69.8405 67.315C69.256 67.3167 68.6768 67.2013 68.1366 66.9755C67.5965 66.7497 67.1061 66.418 66.6939 65.9995C66.2794 65.5833 65.9507 65.0882 65.7271 64.543C65.5034 63.9977 65.3891 63.413 65.3906 62.8228C65.3906 62.5583 65.4947 62.3047 65.68 62.1175C65.865 61.9304 66.1163 61.8251 66.3782 61.825C66.6402 61.8251 66.8914 61.9304 67.0766 62.1175C67.2617 62.3047 67.3658 62.5583 67.3658 62.8228C67.3667 63.4851 67.6278 64.1198 68.0917 64.588C68.5556 65.0561 69.1846 65.3196 69.8405 65.3203C70.4965 65.3196 71.1254 65.0561 71.5893 64.588C72.0533 64.1198 72.3144 63.4851 72.3154 62.8228C72.3152 62.6919 72.3407 62.5621 72.3902 62.4411C72.4398 62.32 72.5125 62.21 72.6042 62.1172C72.6959 62.0246 72.8049 61.951 72.9247 61.9009C73.0446 61.8508 73.1731 61.825 73.3029 61.825C73.5648 61.8251 73.816 61.9304 74.0012 62.1175C74.1864 62.3047 74.2903 62.5583 74.2903 62.8228C74.292 63.413 74.1775 63.9976 73.9539 64.543C73.7303 65.0881 73.4017 65.5833 72.9873 65.9995C72.5749 66.418 72.0846 66.7495 71.5444 66.9755C71.0042 67.2012 70.4252 67.3167 69.8405 67.315Z" fill="#67718E"/>
</svg>
