<svg width="240" height="130" viewBox="0 0 240 130" fill="none" xmlns="http://www.w3.org/2000/svg">
<path d="M64.4505 74.0992C68.6211 74.0992 72.2164 71.948 72.2164 68.1687C72.2164 59.7962 60.5964 63.808 60.5964 57.5578C60.5964 55.9006 61.6606 54.5634 63.8466 54.5634C68.0458 54.5634 66.9817 59.7381 70.088 59.7381C71.3247 59.7381 71.9288 59.0403 71.9288 57.9357C71.9575 55.5227 68.7649 52.9062 63.9328 52.9062C59.187 52.9062 56.3109 55.4646 56.3109 58.9531C56.3396 67.5583 67.9596 63.3138 67.9596 69.506C67.9596 71.2794 66.6365 72.4422 64.6231 72.4422C59.7623 72.4422 60.5388 67.1512 57.6626 67.0931C56.4835 67.0931 55.9369 67.849 55.9369 68.8663C55.9369 71.1921 58.9856 74.0992 64.4505 74.0992ZM86.716 70.8432V60.2032C86.716 59.709 86.3709 59.5927 85.623 59.68L81.9414 60.2322C81.5963 60.2904 81.3662 60.552 81.3662 60.8427V60.9299C81.3662 61.5696 82.5167 61.8602 82.5167 63.1394V69.0408C82.5167 71.1049 81.4237 72.4422 80.0431 72.4422C78.4613 72.4422 77.6559 71.1921 77.6559 68.4885L77.7421 60.2032C77.7421 59.709 77.3108 59.5927 76.5629 59.68L72.9388 60.2322C72.565 60.2904 72.3348 60.552 72.3348 60.8427V60.9299C72.3348 61.5696 73.4566 61.8602 73.4566 63.1394V68.0524C73.4566 72.0353 75.8438 74.0992 78.8064 74.0992C80.791 74.0992 82.2003 73.3725 82.9768 72.0934C83.0632 73.5178 83.8973 73.983 85.5368 73.983C87.1475 73.983 88.0965 73.8086 88.0965 73.1399C88.0965 72.0643 86.716 73.1399 86.716 70.8432ZM100.808 59.8543C97.875 59.8543 96.9253 59.5636 95.085 59.5636C91.0579 59.5636 88.268 62.0347 88.268 65.6685C88.268 68.9827 91.1442 71.4247 94.9988 71.4247C95.3719 71.4247 95.7459 71.3956 96.12 71.3666C97.2422 71.5992 97.9031 72.5876 97.9031 74.0412C97.9031 75.6691 96.7819 76.7738 94.9988 76.7738C91.6331 76.7157 92.2659 72.355 89.9074 72.355C88.7282 72.355 88.2104 73.169 88.2104 73.983C88.2104 76.2505 90.684 77.9948 94.9125 77.9948C98.9963 77.9948 102.131 76.3959 102.131 73.9249C102.131 72.384 101.24 71.1921 98.6803 70.6107C100.665 69.6513 101.902 67.849 101.902 65.5523C101.902 64.1569 101.211 62.7905 100.291 61.8312C101.183 61.5696 102.276 61.6857 102.476 60.7265C102.649 60.2032 102.362 59.8543 100.808 59.8543ZM92.3235 63.7498C92.3235 61.9765 93.1288 60.8427 94.4522 60.8427C96.465 60.8427 97.8169 64.4186 97.8169 67.2093C97.8169 68.9246 97.0116 70.1165 95.6316 70.1165C93.8194 70.1165 92.3235 66.8315 92.3235 63.7498ZM115.934 70.9014L115.301 65.5232C114.898 61.8602 112.367 59.5636 108.628 59.5636C105.637 59.5636 103.105 60.7846 103.105 62.8778C103.105 63.8662 103.796 64.5058 104.831 64.5058C106.988 64.5058 106.328 60.7846 108.628 60.7846C110.382 60.7846 110.843 62.4126 111.188 65.8139L111.217 66.1628C110.469 65.6395 109.404 65.2906 108.082 65.2906C105.263 65.2906 102.847 66.8024 102.876 69.7095C102.876 72.6166 105.176 74.0992 108.283 74.0992C110.268 74.0992 111.475 73.3725 112.108 72.4131C112.281 73.6632 113.029 73.983 114.668 73.983C116.048 73.983 117.429 73.8086 117.429 73.1399C117.429 72.355 116.164 72.9073 115.934 70.9014ZM109.549 72.8201C108.082 72.8201 107.133 71.0468 107.133 69.0408C107.133 67.5582 108.024 66.5989 109.232 66.5989C110.411 66.5989 111.332 67.471 111.504 69.1862L111.591 70.2038C111.677 71.512 110.872 72.8201 109.549 72.8201ZM125.976 59.5636C124.048 59.5636 122.697 60.5811 122.064 62.4417V60.2613C122.064 59.709 121.805 59.3601 121.144 59.68L117.692 61.3079C117.318 61.4824 117.088 61.7148 117.088 62.0055V62.1219C117.088 62.8487 118.411 62.9359 118.411 64.215V71.0177C118.411 72.2387 117.29 72.4712 117.29 73.1981V73.3143C117.29 73.6342 117.548 73.8086 117.951 73.8086H123.272C123.646 73.8086 123.905 73.6342 123.905 73.3143V73.1981C123.905 72.4712 122.467 72.2387 122.467 71.0177V65.2035C122.467 63.6045 122.87 62.0055 123.991 62.0055C125.544 62.0055 124.538 64.5058 126.781 64.5058C128.162 64.5058 128.621 63.4302 128.621 62.2091C128.621 60.7265 127.673 59.5636 125.976 59.5636ZM135.32 74.0992C139.059 74.0992 141.015 71.7445 141.188 69.3606C141.245 68.7211 140.526 68.6049 140.181 69.0699C139.577 70.1165 138.484 71.1049 136.729 71.1049C133.795 71.1049 131.84 68.5757 131.84 64.7093C131.84 62.558 132.876 60.8427 134.514 60.8427C137.017 60.8137 136.844 64.9419 139.318 65.0872C140.641 65.1453 141.101 64.3895 141.101 63.6336C141.101 61.3661 138.455 59.5346 135.146 59.5636C131.264 59.5927 127.899 62.3254 127.899 66.8024C127.899 70.727 130.976 74.0992 135.32 74.0992ZM154.586 70.9014L153.954 65.5232C153.551 61.8602 151.02 59.5636 147.281 59.5636C144.29 59.5636 141.758 60.7846 141.758 62.8778C141.758 63.8662 142.448 64.5058 143.484 64.5058C145.642 64.5058 144.98 60.7846 147.281 60.7846C149.035 60.7846 149.496 62.4126 149.841 65.8139L149.87 66.1628C149.122 65.6395 148.057 65.2906 146.735 65.2906C143.916 65.2906 141.5 66.8024 141.528 69.7095C141.528 72.6166 143.829 74.0992 146.936 74.0992C148.92 74.0992 150.128 73.3725 150.761 72.4131C150.934 73.6632 151.682 73.983 153.321 73.983C154.702 73.983 156.083 73.8086 156.083 73.1399C156.083 72.355 154.817 72.9073 154.586 70.9014ZM148.201 72.8201C146.735 72.8201 145.786 71.0468 145.786 69.0408C145.786 67.5582 146.678 66.5989 147.885 66.5989C149.064 66.5989 149.984 67.471 150.158 69.1862L150.244 70.2038C150.329 71.512 149.524 72.8201 148.201 72.8201ZM170.783 70.9887L170.438 65.7558C170.093 61.1335 167.562 59.5636 164.945 59.5636C162.989 59.5636 161.465 60.4358 160.688 61.9183V60.2904C160.688 59.7381 160.372 59.331 159.71 59.68L156.288 61.3661C155.942 61.5405 155.712 61.6857 155.712 61.9765V62.0928C155.712 62.8197 157.121 62.9359 157.121 64.2441V71.0177C157.121 72.2678 155.885 72.5003 155.885 73.2271V73.3434C155.885 73.6342 156.143 73.8376 156.546 73.8376H161.896C162.298 73.8376 162.558 73.6342 162.558 73.3434V73.2271C162.558 72.5003 161.321 72.2678 161.321 71.0177V64.4186C161.321 62.5288 162.213 61.2207 163.765 61.2207C165.291 61.2207 166.125 62.4998 166.268 65.6104L166.555 70.9887C166.613 72.2678 165.52 72.5003 165.52 73.2271V73.3434C165.52 73.6342 165.779 73.8376 166.182 73.8376H171.158C171.561 73.8376 171.819 73.6342 171.819 73.3434V73.2271C171.819 72.5003 170.871 72.2678 170.783 70.9887ZM183.685 69.3897C183.139 70.291 181.93 71.0758 180.406 71.0758C178.681 71.0758 177.358 70.1456 176.61 68.5467L182.995 65.6104C183.772 65.2616 184.26 64.6802 184.26 63.6917C184.26 61.773 182.593 59.5636 178.824 59.5636C175.057 59.5636 171.864 62.4998 171.864 66.7152C171.864 71.1921 174.827 74.0992 178.824 74.0992C182.534 74.0992 184.491 71.3956 184.663 69.7095C184.692 69.0989 184.03 68.9536 183.685 69.3897ZM178.307 60.8427C179.859 60.8427 180.608 62.9068 180.608 63.9534C180.608 64.5639 180.378 65.0581 179.859 65.3197L176.149 67.2093C175.948 66.4535 175.862 65.6104 175.862 64.7093C175.862 62.4998 176.783 60.8427 178.307 60.8427Z" fill="#67718E"/>
</svg>
