<svg width="96" height="97" viewBox="0 0 96 97" fill="none" xmlns="http://www.w3.org/2000/svg">
<rect y="0.78125" width="96" height="96" rx="48" fill="white"/>
<path d="M57.22 49.3013L43.9713 58.1338C43.8771 58.1965 43.7678 58.2323 43.6549 58.2378C43.5419 58.2431 43.4297 58.2178 43.33 58.1645C43.2303 58.1111 43.147 58.0316 43.0889 57.9348C43.0308 57.8378 43.0001 57.7268 43 57.6138V39.9488C43.0001 39.8357 43.0308 39.7248 43.0889 39.6278C43.147 39.5309 43.2303 39.4515 43.33 39.3981C43.4297 39.3447 43.5419 39.3194 43.6549 39.3248C43.7678 39.3302 43.8771 39.3661 43.9713 39.4288L57.22 48.2613C57.3057 48.3183 57.3758 48.3956 57.4243 48.4865C57.4728 48.5771 57.4983 48.6785 57.4983 48.7813C57.4983 48.8841 57.4728 48.9855 57.4243 49.0761C57.3758 49.1668 57.3057 49.2441 57.22 49.3013Z" fill="#061237"/>
</svg>
