<svg width="53" height="40" viewBox="0 0 53 40" fill="none" xmlns="http://www.w3.org/2000/svg">
<path d="M23.3883 8.9564C18.759 9.28706 15.2456 10.6924 12.8483 13.1724C10.451 15.5697 9.45896 18.8351 9.87229 22.9684H11.3603C11.939 21.1497 13.4683 20.2404 15.9483 20.2404C18.1803 20.2404 20.123 21.1084 21.7763 22.8444C23.4296 24.5804 24.2563 26.8537 24.2563 29.6644C24.2563 32.7231 23.2643 35.2031 21.2803 37.1044C19.2963 39.0057 16.6923 39.9564 13.4683 39.9564C9.41762 39.9564 6.27629 38.4684 4.04429 35.4924C1.81229 32.4337 0.696289 28.4244 0.696289 23.4644C0.696289 17.4297 2.51496 12.2217 6.15229 7.84039C9.87229 3.37639 15.6176 0.89638 23.3883 0.400391V8.9564ZM51.4123 8.9564C46.783 9.28706 43.2696 10.6924 40.8723 13.1724C38.475 15.5697 37.4416 18.8351 37.7723 22.9684H39.2603C39.839 21.1497 41.4096 20.2404 43.9723 20.2404C46.2043 20.2404 48.147 21.1084 49.8003 22.8444C51.4536 24.5804 52.2803 26.8537 52.2803 29.6644C52.2803 32.7231 51.2883 35.2031 49.3043 37.1044C47.3203 39.0057 44.7163 39.9564 41.4923 39.9564C37.359 39.9564 34.1763 38.4684 31.9443 35.4924C29.795 32.4337 28.7203 28.4244 28.7203 23.4644C28.7203 17.4297 30.539 12.2217 34.1763 7.84039C37.8963 3.37639 43.6416 0.89638 51.4123 0.400391V8.9564Z" fill="#DADDE7"/>
</svg>
