<svg width="256" height="65" viewBox="0 0 256 65" fill="none" xmlns="http://www.w3.org/2000/svg">
<path d="M99.9728 34.428L102.828 33.64C102.875 34.2754 103.169 34.8661 103.646 35.2837C104.204 35.7518 104.917 35.9895 105.641 35.9491C106.181 35.9802 106.717 35.8326 107.166 35.5289C107.335 35.4152 107.474 35.2614 107.57 35.081C107.666 34.9005 107.717 34.699 107.718 34.4941C107.719 34.3242 107.683 34.1562 107.612 34.0021C107.541 33.8481 107.437 33.7116 107.308 33.6026C106.956 33.3215 106.536 33.1411 106.091 33.0804L104.041 32.6155C102.987 32.4194 102.023 31.8877 101.29 31.0985C100.655 30.3816 100.312 29.4501 100.327 28.4892C100.326 27.8893 100.459 27.2969 100.714 26.7552C100.969 26.2136 101.341 25.7364 101.803 25.3585C102.802 24.4819 104.09 24.0158 105.413 24.0523C106.086 24.0446 106.755 24.1383 107.4 24.3301C107.918 24.4778 108.409 24.7092 108.854 25.0154C109.22 25.2814 109.545 25.6015 109.816 25.9651C110.056 26.2753 110.256 26.615 110.411 26.976C110.533 27.2742 110.62 27.586 110.67 27.9048L107.957 28.6929C107.927 28.4666 107.861 28.2467 107.763 28.041C107.65 27.8049 107.506 27.5853 107.335 27.3883C107.123 27.1517 106.857 26.9701 106.561 26.8589C106.195 26.7168 105.805 26.6476 105.413 26.6552C104.897 26.6361 104.391 26.8028 103.985 27.1257C103.811 27.2552 103.669 27.4237 103.571 27.618C103.472 27.8124 103.42 28.0273 103.418 28.2456C103.416 28.4183 103.449 28.5895 103.514 28.7488C103.58 28.9082 103.678 29.0522 103.801 29.1721C104.083 29.4436 104.441 29.6218 104.826 29.6832L106.915 30.117C108.005 30.2975 109.013 30.8134 109.801 31.5943C110.46 32.2839 110.821 33.209 110.805 34.1669C110.805 34.744 110.694 35.3154 110.478 35.8497C110.254 36.4016 109.935 36.9092 109.536 37.3493C109.084 37.8345 108.529 38.2111 107.914 38.451C107.198 38.7386 106.433 38.8811 105.663 38.8704C104.797 38.8842 103.936 38.7312 103.127 38.4199C102.458 38.1729 101.854 37.7764 101.359 37.2602C100.963 36.8371 100.631 36.3568 100.375 35.8353C100.161 35.3933 100.025 34.9171 99.9728 34.428Z" fill="#061237"/>
<path d="M110.813 27.4131V24.4886H111.522C111.816 24.5099 112.11 24.4669 112.385 24.3625C112.661 24.258 112.91 24.0947 113.117 23.8836C113.491 23.4416 113.684 22.8723 113.657 22.2917V20.1792H116.637V24.4886H119.506V27.4131H116.637V33.9211C116.615 34.1626 116.641 34.4061 116.714 34.6373C116.786 34.8685 116.904 35.0826 117.06 35.2671C117.436 35.5768 117.917 35.7259 118.4 35.6826C118.782 35.6834 119.163 35.6456 119.537 35.5696V38.3014C118.887 38.5345 118.198 38.6383 117.509 38.607C116.954 38.6379 116.399 38.5557 115.876 38.3653C115.353 38.1749 114.874 37.8804 114.467 37.4991C114.085 37.0929 113.789 36.6119 113.598 36.086C113.407 35.5601 113.324 35.0001 113.356 34.4408V27.4131H110.813Z" fill="#061237"/>
<path d="M120.323 34.6934C120.299 34.158 120.39 33.6237 120.588 33.1267C120.787 32.6297 121.089 32.1816 121.474 31.8127C122.319 31.0578 123.374 30.583 124.496 30.4523L128.044 29.9062C128.727 29.8192 129.069 29.5053 129.069 28.9645C129.076 28.6912 129.021 28.42 128.907 28.1716C128.794 27.9232 128.626 27.7043 128.416 27.5318C127.848 27.1197 127.154 26.9224 126.457 26.9746C125.727 26.9368 125.012 27.1871 124.463 27.6727C123.967 28.1367 123.662 28.7715 123.608 29.4517L120.612 28.7807C120.674 28.1318 120.863 27.5017 121.167 26.9266C121.471 26.3514 121.884 25.8424 122.383 25.4288C123.512 24.4828 124.948 23.9917 126.413 24.0501C127.342 24.033 128.266 24.1793 129.145 24.4824C129.852 24.7207 130.491 25.1288 131.007 25.6716C131.457 26.1623 131.802 26.7406 132.023 27.371C132.248 28.0313 132.359 28.7257 132.352 29.4239V36.197C132.341 36.9468 132.401 37.6962 132.532 38.4345H129.419C129.285 37.8522 129.232 37.254 129.261 36.657C128.846 37.3067 128.281 37.8446 127.614 38.2244C126.815 38.6743 125.91 38.8968 124.996 38.8683C123.753 38.9236 122.538 38.4824 121.615 37.6401C121.204 37.2701 120.876 36.8158 120.653 36.3076C120.431 35.7994 120.318 35.249 120.323 34.6934ZM123.608 34.4545C123.604 34.6934 123.649 34.9304 123.741 35.1504C123.833 35.3705 123.97 35.5686 124.143 35.7321C124.343 35.9137 124.577 36.0535 124.831 36.1433C125.085 36.2333 125.355 36.2715 125.623 36.2558C126.07 36.261 126.515 36.1971 126.943 36.0664C127.339 35.9414 127.71 35.7421 128.034 35.4789C128.384 35.1824 128.648 34.7956 128.798 34.3598C128.99 33.8094 129.082 33.2286 129.069 32.6453V32.0156L125.466 32.5728C124.968 32.6381 124.499 32.8492 124.118 33.1802C123.947 33.3423 123.813 33.54 123.725 33.7596C123.637 33.9792 123.597 34.2154 123.608 34.4521V34.4545Z" fill="#061237"/>
<path d="M134.573 38.4373V24.4867H137.748V26.2252C138.14 25.5325 138.737 24.9804 139.454 24.6452C140.191 24.275 141.002 24.0821 141.825 24.0816C142.705 24.0654 143.574 24.2781 144.348 24.6992C145.08 25.1012 145.661 25.7331 146.004 26.4989C146.458 25.7197 147.117 25.0819 147.906 24.6554C148.696 24.229 149.586 24.0305 150.48 24.0816C151.089 24.077 151.694 24.1835 152.265 24.396C152.826 24.6085 153.341 24.9267 153.785 25.3336C154.273 25.7958 154.646 26.3689 154.87 27.0053C155.149 27.7665 155.284 28.5732 155.271 29.3844V38.4373H152.18V29.8884C152.218 29.1319 151.983 28.3872 151.517 27.7932C151.265 27.5197 150.955 27.3069 150.611 27.1704C150.266 27.0341 149.895 26.9776 149.526 27.0053C149.138 26.9918 148.752 27.0649 148.394 27.2192C148.037 27.3735 147.718 27.6055 147.46 27.8983C146.924 28.5066 146.639 29.2991 146.664 30.1127V38.4373H143.38V29.8884C143.415 29.1354 143.182 28.3947 142.723 27.8004C142.472 27.5235 142.161 27.3079 141.815 27.17C141.469 27.0321 141.096 26.9755 140.726 27.0045C140.336 26.9883 139.949 27.0583 139.588 27.2096C139.229 27.3608 138.907 27.5897 138.644 27.88C138.11 28.4968 137.831 29.2966 137.863 30.1151V38.4396L134.573 38.4373Z" fill="#061237"/>
<path d="M157.637 43.8824V24.4865H160.839V26.3556C161.243 25.6757 161.834 25.129 162.54 24.7818C163.371 24.3575 164.291 24.1457 165.221 24.165C166.103 24.1221 166.983 24.283 167.794 24.6353C168.605 24.9875 169.326 25.522 169.901 26.1979C171.08 27.6792 171.685 29.5422 171.605 31.4403C171.68 33.3618 171.046 35.243 169.825 36.7194C169.243 37.399 168.517 37.9379 167.701 38.2961C166.884 38.6544 165.999 38.8228 165.11 38.7888C164.239 38.8058 163.376 38.6212 162.586 38.2492C161.923 37.9455 161.348 37.4723 160.92 36.8761V43.8808L157.637 43.8824ZM160.894 31.4427C160.84 32.603 161.209 33.7431 161.931 34.6466C162.257 35.0398 162.666 35.3537 163.128 35.5647C163.59 35.7756 164.094 35.8781 164.601 35.8645C165.11 35.879 165.615 35.7777 166.079 35.5681C166.543 35.3585 166.954 35.046 167.282 34.6537C168.008 33.7486 168.377 32.6054 168.32 31.4427C168.374 30.2991 168.007 29.1757 167.289 28.289C166.958 27.8992 166.544 27.5896 166.078 27.3829C165.613 27.1763 165.107 27.0778 164.598 27.095C164.093 27.0809 163.589 27.1817 163.127 27.3901C162.666 27.5986 162.255 27.9094 161.929 28.2993C161.211 29.1812 160.842 30.3002 160.894 31.4403V31.4427Z" fill="#061237"/>
<path d="M171.844 34.428L174.7 33.64C174.747 34.2754 175.041 34.8661 175.517 35.2837C176.076 35.7519 176.789 35.9896 177.514 35.9491C178.053 35.98 178.589 35.8325 179.038 35.5289C179.207 35.4152 179.345 35.2614 179.442 35.081C179.539 34.9005 179.59 34.699 179.59 34.4941C179.591 34.3242 179.554 34.1562 179.484 34.0021C179.413 33.848 179.309 33.7116 179.18 33.6026C178.829 33.3215 178.408 33.141 177.964 33.0804L175.914 32.6155C174.86 32.4195 173.896 31.8878 173.164 31.0985C172.529 30.382 172.184 29.4503 172.199 28.4892C172.199 27.8893 172.332 27.2969 172.587 26.7552C172.842 26.2136 173.214 25.7364 173.676 25.3585C174.675 24.4819 175.963 24.0158 177.286 24.0523C177.959 24.0446 178.628 24.1383 179.273 24.3301C179.791 24.4776 180.282 24.7091 180.727 25.0154C181.093 25.2816 181.418 25.6017 181.69 25.9651C181.929 26.2755 182.128 26.6152 182.284 26.976C182.406 27.2742 182.493 27.586 182.543 27.9048L179.83 28.6929C179.8 28.4667 179.734 28.2467 179.637 28.041C179.524 27.805 179.379 27.5855 179.207 27.3883C178.995 27.1517 178.73 26.9701 178.434 26.8589C178.068 26.7167 177.678 26.6475 177.286 26.6552C176.77 26.6361 176.265 26.8029 175.859 27.1257C175.685 27.255 175.543 27.4236 175.444 27.618C175.345 27.8123 175.292 28.0272 175.291 28.2456C175.289 28.4183 175.321 28.5895 175.387 28.7488C175.453 28.9082 175.551 29.0522 175.674 29.1721C175.956 29.4434 176.314 29.6217 176.698 29.6832L178.787 30.117C179.877 30.2973 180.886 30.8133 181.674 31.5943C182.332 32.2842 182.693 33.2092 182.677 34.1669C182.677 34.744 182.566 35.3156 182.35 35.8497C182.126 36.4017 181.807 36.9095 181.408 37.3493C180.956 37.8346 180.402 38.211 179.785 38.451C179.07 38.7386 178.306 38.8811 177.535 38.8704C176.669 38.8842 175.808 38.7313 174.999 38.4199C174.331 38.1727 173.727 37.7762 173.232 37.2602C172.836 36.8371 172.504 36.3568 172.248 35.8353C172.034 35.3932 171.898 34.9171 171.844 34.428Z" fill="#061237"/>
<path d="M76.1198 24.2323C76.1341 24.1942 76.1444 24.1548 76.1505 24.1145C76.2502 23.3986 76.6151 22.7475 77.1716 22.2925C77.5658 21.9753 78.0372 21.771 78.5365 21.701C78.5695 21.696 78.602 21.6878 78.6334 21.6763C78.7314 21.6661 78.8299 21.6611 78.9283 21.6613C79.6082 21.6573 80.266 21.9045 80.7778 22.3564C81.2895 22.8084 81.6197 23.4337 81.7061 24.1145C81.7154 24.2224 81.7647 24.3229 81.8443 24.3955C81.9238 24.4682 82.0277 24.5077 82.1351 24.5061H82.2368C82.3442 24.508 82.4483 24.4687 82.528 24.3959C82.6077 24.3232 82.6569 24.2226 82.6658 24.1145C82.7484 23.4353 83.075 22.8105 83.5837 22.3583C84.0923 21.9061 84.7477 21.6581 85.4254 21.6613C86.1053 21.6573 86.7631 21.9045 87.2748 22.3564C87.7866 22.8084 88.1168 23.4337 88.2032 24.1145C88.2123 24.2224 88.2617 24.3229 88.3414 24.3955C88.4209 24.4682 88.5248 24.5077 88.6321 24.5061H88.711C88.8184 24.508 88.9226 24.4687 89.0022 24.3959C89.0819 24.3232 89.1311 24.2226 89.1399 24.1145C89.2258 23.4367 89.5534 22.8139 90.0614 22.3623C90.5693 21.9108 91.2228 21.6615 91.8996 21.6613C92.6309 21.6612 93.3333 21.9503 93.8558 22.4668C94.3684 22.9954 94.6552 23.7059 94.6545 24.4456C94.6546 25.1291 94.4078 25.7891 93.9602 26.302C93.5127 26.8149 92.8953 27.1454 92.2237 27.2316C92.1167 27.2404 92.0169 27.2901 91.9449 27.3706C91.8728 27.4511 91.8338 27.5562 91.8357 27.6646V27.7442C91.8341 27.8526 91.8733 27.9574 91.9453 28.0378C92.0173 28.1181 92.1167 28.1679 92.2237 28.1772C92.8981 28.2641 93.5178 28.5972 93.9656 29.1137C94.4135 29.6302 94.6585 30.2943 94.6545 30.9807C94.6577 31.665 94.4119 32.3267 93.9638 32.8402C93.5157 33.3538 92.8965 33.6834 92.2237 33.7666C92.1167 33.7755 92.0169 33.8253 91.9449 33.9058C91.8728 33.9862 91.8338 34.0913 91.8357 34.1996V34.3032C91.8343 34.4115 91.8736 34.5163 91.9455 34.5965C92.0175 34.6769 92.1168 34.7267 92.2237 34.7361C92.8981 34.823 93.5178 35.1562 93.9656 35.6727C94.4135 36.1891 94.6585 36.8533 94.6545 37.5396C94.6545 37.632 94.6499 37.7227 94.6412 37.8127C94.6266 37.8507 94.616 37.8902 94.6097 37.9305C94.5106 38.6465 94.146 39.2977 93.5893 39.7525C93.1948 40.0697 92.7232 40.274 92.2237 40.3439C92.191 40.3491 92.1589 40.3571 92.1275 40.3678C92.0293 40.3783 91.9306 40.3837 91.8319 40.3837C91.152 40.3877 90.4943 40.1404 89.9827 39.6885C89.4711 39.2365 89.1411 38.6112 89.0548 37.9305C89.0456 37.8225 88.9962 37.7221 88.9167 37.6494C88.8371 37.5767 88.7331 37.5372 88.6258 37.5388H88.5233C88.4159 37.5369 88.3119 37.5763 88.2321 37.649C88.1525 37.7218 88.1032 37.8223 88.0944 37.9305C88.0119 38.6096 87.6853 39.2347 87.1767 39.6869C86.668 40.1391 86.0125 40.387 85.3348 40.3837C84.6548 40.3877 83.9971 40.1404 83.4853 39.6885C82.9736 39.2365 82.6434 38.6113 82.557 37.9305C82.5477 37.8225 82.4984 37.7221 82.4188 37.6494C82.3392 37.5767 82.2353 37.5372 82.128 37.5388H82.0492C81.9418 37.5369 81.8376 37.5763 81.7579 37.649C81.6783 37.7218 81.629 37.8223 81.6202 37.9305C81.5346 38.6084 81.2071 39.2314 80.6992 39.683C80.1911 40.1347 79.5375 40.3838 78.8605 40.3837C78.1276 40.3847 77.4236 40.0954 76.8995 39.5781C76.3873 39.0493 76.1008 38.339 76.1016 37.5994C76.1016 36.916 76.3483 36.2561 76.7957 35.7432C77.243 35.2304 77.8602 34.8997 78.5317 34.8134C78.6389 34.8047 78.7388 34.755 78.8111 34.6746C78.8833 34.5941 78.9224 34.4889 78.9204 34.3804V34.3007C78.9218 34.1924 78.8825 34.0874 78.8104 34.0071C78.7383 33.9268 78.6387 33.877 78.5317 33.8677C77.8574 33.7807 77.238 33.4474 76.7903 32.931C76.3427 32.4146 76.0976 31.7505 76.1016 31.0643C76.0983 30.38 76.344 29.7183 76.7919 29.2048C77.2399 28.6912 77.8589 28.3615 78.5317 28.2783C78.6389 28.2696 78.7388 28.22 78.8111 28.1395C78.8833 28.0591 78.9224 27.9538 78.9204 27.8453V27.7418C78.9218 27.6334 78.8825 27.5285 78.8104 27.4481C78.7383 27.3678 78.6387 27.318 78.5317 27.3088C77.8574 27.2217 77.238 26.8885 76.7903 26.372C76.3427 25.8556 76.0976 25.1915 76.1016 24.5053C76.1016 24.413 76.1063 24.3223 76.115 24.2323H76.1198ZM78.5388 20.7913C78.5047 20.7823 78.4699 20.7762 78.4348 20.7729C77.5052 20.9037 76.6587 21.3839 76.0646 22.1173C75.6158 22.657 75.3273 23.3137 75.232 24.0118C75.2343 24.0421 75.239 24.0722 75.2461 24.1018C75.2341 24.222 75.228 24.3429 75.228 24.4639C75.2337 25.1351 75.4165 25.7926 75.7575 26.3688C76.0986 26.9448 76.5857 27.4188 77.1685 27.7418C76.5855 28.0649 76.0984 28.539 75.7573 29.1152C75.4163 29.6915 75.2336 30.3492 75.228 31.0205C75.2337 31.6917 75.4165 32.3491 75.7575 32.9252C76.0986 33.5014 76.5857 33.9754 77.1685 34.2983C76.5821 34.6173 76.0921 35.0904 75.7505 35.6676C75.4089 36.2448 75.2283 36.9046 75.228 37.577C75.228 37.6813 75.2327 37.784 75.2406 37.8867C75.2293 37.9341 75.2257 37.9831 75.2296 38.0317C75.3379 38.8511 75.7116 39.6114 76.2924 40.1942C76.8698 40.7806 77.6229 41.1579 78.4348 41.2673C78.4832 41.2712 78.5318 41.2675 78.5791 41.2561C78.68 41.2648 78.7824 41.2688 78.8857 41.2688C79.5517 41.2686 80.2052 41.0863 80.7769 40.7416C81.3485 40.3966 81.8171 39.9018 82.1327 39.3099C82.4525 39.8984 82.9219 40.3902 83.4927 40.7346C84.0635 41.0788 84.7148 41.2632 85.3796 41.2688C86.0446 41.2634 86.6962 41.0791 87.2671 40.7346C87.838 40.3904 88.3075 39.8985 88.6274 39.3099C88.9472 39.8984 89.4167 40.3902 89.9874 40.7346C90.5582 41.0788 91.2095 41.2632 91.8744 41.2688C91.9919 41.2688 92.1109 41.2632 92.2229 41.2521C92.2573 41.2612 92.2924 41.2671 92.3278 41.2696C93.2558 41.1388 94.1006 40.6588 94.6932 39.926C95.1422 39.3864 95.4312 38.7297 95.5266 38.0317C95.5242 38.0013 95.5195 37.9713 95.5125 37.9417C95.5242 37.8223 95.5298 37.7029 95.5298 37.5795C95.5242 36.9083 95.3417 36.2508 95.0006 35.6747C94.6597 35.0986 94.1728 34.6246 93.5901 34.3015C94.1729 33.9784 94.6599 33.5044 95.0009 32.9282C95.3418 32.3518 95.5244 31.6941 95.5298 31.0229C95.5242 30.3517 95.3417 29.6943 95.0006 29.1182C94.6597 28.542 94.1728 28.068 93.5901 27.745C94.1763 27.4259 94.6662 26.9528 95.0077 26.3756C95.3491 25.7983 95.5295 25.1386 95.5298 24.4663C95.5298 24.362 95.5258 24.2585 95.5179 24.1566C95.5285 24.1091 95.5321 24.0604 95.529 24.0118C95.421 23.192 95.0469 22.4315 94.4654 21.8491C93.8886 21.2624 93.1355 20.8851 92.3238 20.7761C92.2754 20.7721 92.2267 20.7758 92.1795 20.7873C92.0786 20.7785 91.9761 20.7745 91.8728 20.7745C91.2068 20.7747 90.5534 20.957 89.9817 21.3019C89.4101 21.6468 88.9415 22.1415 88.6258 22.7335C88.306 22.1448 87.8364 21.653 87.2655 21.3087C86.6946 20.9644 86.0431 20.78 85.3781 20.7745C84.7133 20.7801 84.0619 20.9645 83.4911 21.3089C82.9204 21.6532 82.451 22.1449 82.1311 22.7335C81.8113 22.1448 81.3417 21.653 80.7708 21.3087C80.1999 20.9644 79.5483 20.78 78.8834 20.7745C78.7659 20.7745 78.6469 20.7801 78.5349 20.7913H78.5388Z" fill="#061237"/>
<path d="M92.3483 41.9694L92.2758 41.9638C92.2458 41.9638 92.2151 41.9575 92.1852 41.9535C92.0827 41.9606 91.9786 41.9646 91.8752 41.9646C91.0753 41.9635 90.2914 41.7389 89.6099 41.3159C89.2472 41.0918 88.9177 40.8168 88.6314 40.4992C88.2194 40.9572 87.7177 41.3238 87.1582 41.576C86.5986 41.8283 85.9933 41.9606 85.3805 41.9646C84.5806 41.9635 83.7966 41.7389 83.1152 41.3159C82.7536 41.0922 82.425 40.8181 82.1391 40.5016C81.8556 40.8187 81.5285 41.0929 81.1677 41.3159C80.4811 41.7402 79.6917 41.9646 78.8866 41.9646C78.7952 41.9646 78.703 41.9646 78.6115 41.9559C78.5356 41.9654 78.459 41.967 78.3828 41.9606H78.3631H78.3434C77.8595 41.8951 77.3898 41.7491 76.9533 41.5284C76.529 41.3134 76.1422 41.0304 75.8077 40.6903C75.4708 40.3528 75.1906 39.9622 74.9782 39.5337C74.7589 39.0933 74.6139 38.619 74.5492 38.1304V38.1104V38.0906C74.5437 38.0136 74.5453 37.9364 74.554 37.8598C74.5485 37.7675 74.5461 37.6743 74.5461 37.5827C74.5457 36.7701 74.7678 35.9732 75.1879 35.2799C75.4086 34.9151 75.6806 34.5845 75.9952 34.2985C75.6812 34.0103 75.4094 33.6785 75.1879 33.313C74.7692 32.6251 74.547 31.8337 74.5461 31.0262C74.55 30.4076 74.681 29.7966 74.9307 29.2317C75.1804 28.6669 75.5435 28.1604 75.9968 27.7443C75.6822 27.4553 75.4099 27.1228 75.1879 26.7565C74.7692 26.0685 74.547 25.2771 74.5461 24.4696C74.5461 24.359 74.55 24.2475 74.5586 24.1369C74.5555 24.1146 74.5531 24.0923 74.5515 24.0701L74.5461 23.9968L74.5555 23.9235C74.668 23.0971 75.0093 22.3196 75.5403 21.6805C76.2427 20.8107 77.2454 20.2419 78.3465 20.0885L78.419 20.0781L78.4924 20.0837C78.5224 20.0837 78.5524 20.0901 78.5823 20.0941C78.6856 20.0869 78.7897 20.0829 78.8921 20.0829C79.6923 20.0843 80.4765 20.3088 81.1582 20.7317C81.5207 20.9558 81.85 21.2308 82.1359 21.5483C82.548 21.0905 83.0496 20.7238 83.6092 20.4715C84.1687 20.2193 84.7741 20.087 85.3868 20.0829C86.187 20.0843 86.9712 20.3088 87.6529 20.7317C88.0147 20.9555 88.3432 21.2296 88.6291 21.5459C88.9125 21.2289 89.2397 20.9547 89.6005 20.7317C90.2871 20.3074 91.0765 20.0828 91.8815 20.0829C91.9731 20.0829 92.0653 20.0829 92.156 20.0917C92.232 20.0821 92.309 20.0805 92.3854 20.0869H92.4044H92.424C92.9079 20.1523 93.3777 20.2983 93.8142 20.5191C94.2388 20.7339 94.626 21.017 94.9606 21.3573C95.2978 21.6944 95.5781 22.0852 95.7901 22.5138C96.0087 22.9545 96.1535 23.4287 96.2182 23.9172V23.9371V23.957C96.2238 24.0339 96.2221 24.1112 96.2127 24.1879C96.2182 24.2802 96.2214 24.3725 96.2214 24.4648C96.2215 25.2775 95.9991 26.0745 95.5788 26.7676C95.3583 27.1325 95.0866 27.463 94.7721 27.749C95.0862 28.0371 95.3577 28.369 95.5788 28.7345C95.9978 29.4223 96.2202 30.2139 96.2214 31.0214C96.2174 31.6401 96.0864 32.2511 95.8365 32.816C95.5867 33.3809 95.2234 33.8873 94.7698 34.3033C95.0844 34.5919 95.3568 34.9242 95.5788 35.2903C95.9976 35.9785 96.22 36.7702 96.2214 37.5779C96.2214 37.6886 96.2174 37.8 96.2087 37.9099C96.2087 37.9322 96.2143 37.9553 96.2158 37.9776L96.2214 38.0508L96.2111 38.124C96.099 38.9503 95.7579 39.7279 95.2271 40.3671C94.5246 41.237 93.5215 41.8059 92.4201 41.959L92.3483 41.9694ZM89.7401 37.8494C89.8058 38.3617 90.0552 38.8318 90.4411 39.1708C90.827 39.51 91.3226 39.6946 91.8343 39.6897C91.8902 39.6897 91.9455 39.6898 92.0006 39.6834C92.0377 39.6738 92.0748 39.6658 92.1126 39.6595H92.1331C92.5081 39.6064 92.8621 39.4528 93.1581 39.2145C93.5784 38.8716 93.8539 38.3801 93.9285 37.8398V37.8199C93.9362 37.7727 93.9465 37.7259 93.9592 37.6798C93.9592 37.6345 93.964 37.5883 93.964 37.543C93.9686 37.0263 93.7856 36.5258 93.4496 36.1361C93.1135 35.7464 92.6477 35.4945 92.1402 35.428C91.866 35.3991 91.6123 35.2684 91.4283 35.061C91.2444 34.8537 91.1435 34.5848 91.1452 34.3064V34.203C91.143 33.9305 91.2397 33.6667 91.4171 33.4614C91.5945 33.256 91.8402 33.1234 92.1079 33.0885H92.1276H92.1481C92.651 33.0223 93.1126 32.7731 93.4465 32.3876C93.7804 32.0023 93.9635 31.5071 93.9616 30.9951C93.9663 30.4785 93.7832 29.978 93.4472 29.5883C93.1111 29.1987 92.6453 28.9467 92.1378 28.8802C91.8636 28.8513 91.6099 28.7205 91.426 28.5132C91.242 28.3059 91.1411 28.037 91.1428 27.7586V27.6791C91.1406 27.4066 91.2373 27.1428 91.4147 26.9375C91.5921 26.732 91.8378 26.5995 92.1055 26.5646H92.1252H92.1457C92.6464 26.4933 93.1051 26.2426 93.438 25.8582C93.7709 25.474 93.9559 24.9817 93.9592 24.4712C93.9605 23.9153 93.7463 23.3812 93.3623 22.9827C92.9677 22.595 92.4385 22.3787 91.8879 22.3801C91.3807 22.3782 90.8902 22.563 90.5084 22.9C90.1267 23.2371 89.8798 23.7032 89.8141 24.2109V24.2316V24.2515C89.7797 24.5217 89.6483 24.7698 89.4449 24.9489C89.2415 25.128 88.9802 25.2257 88.7103 25.2234H88.6314C88.3557 25.2252 88.0891 25.1233 87.8837 24.9376C87.6782 24.752 87.5485 24.4958 87.5197 24.2188C87.4538 23.7065 87.2042 23.2363 86.8183 22.897C86.4322 22.5578 85.9365 22.373 85.4247 22.3777C84.9175 22.3758 84.4271 22.5606 84.0453 22.8977C83.6635 23.2348 83.4166 23.7008 83.351 24.2085V24.2292V24.2491C83.3165 24.5193 83.1851 24.7674 82.9817 24.9465C82.7784 25.1256 82.517 25.2232 82.2471 25.221H82.1454C81.8697 25.2228 81.6031 25.1209 81.3977 24.9352C81.1922 24.7496 81.0624 24.4934 81.0337 24.2165C80.9677 23.7041 80.7182 23.2339 80.3322 22.8946C79.9462 22.5555 79.4504 22.3706 78.9387 22.3754C78.8834 22.3754 78.8275 22.3753 78.7723 22.3825C78.736 22.3921 78.6982 22.4 78.6604 22.4064H78.6398C78.2648 22.4592 77.9107 22.6129 77.6149 22.8514C77.194 23.1939 76.9185 23.6855 76.8445 24.226V24.2459C76.8367 24.2931 76.8265 24.3399 76.8137 24.3861C76.8137 24.4314 76.8098 24.4776 76.8098 24.5229C76.8051 25.0395 76.988 25.5398 77.3239 25.9295C77.6597 26.3192 78.1254 26.5712 78.6327 26.6379C78.9069 26.6667 79.1607 26.7976 79.3446 27.0048C79.5286 27.2122 79.6295 27.4811 79.6278 27.7594V27.8629C79.63 28.1353 79.5334 28.399 79.3562 28.6043C79.179 28.8096 78.9334 28.9423 78.6659 28.9773H78.6454H78.6249C78.1219 29.0434 77.6601 29.2926 77.3262 29.678C76.9923 30.0635 76.8093 30.5587 76.8114 31.0707C76.8065 31.5873 76.9894 32.0875 77.3253 32.4771C77.6612 32.8667 78.1269 33.1185 78.6343 33.1849C78.9086 33.2141 79.1622 33.3452 79.3461 33.5525C79.5299 33.76 79.6309 34.0289 79.6294 34.3072V34.3868C79.6316 34.6592 79.535 34.9229 79.3578 35.1282C79.1805 35.3335 78.935 35.4662 78.6674 35.5012H78.6469H78.6265C78.1257 35.5726 77.6671 35.8233 77.3342 36.2076C77.0012 36.5919 76.8163 37.0841 76.8129 37.5947C76.8115 38.1503 77.0258 38.6843 77.4098 39.0823C77.8042 39.4704 78.3336 39.6867 78.8842 39.685C79.3899 39.6814 79.8774 39.4946 80.2581 39.1585C80.6387 38.8225 80.8871 38.3596 80.958 37.8542V37.8335L80.9619 37.8127C80.9966 37.5427 81.128 37.2948 81.3314 37.1158C81.5348 36.937 81.7961 36.8394 82.0658 36.8416H82.1446C82.4204 36.8399 82.6869 36.9419 82.8924 37.1275C83.0978 37.3132 83.2277 37.5693 83.2564 37.8462C83.3223 38.3585 83.5719 38.8286 83.9579 39.1677C84.344 39.5069 84.8397 39.6914 85.3514 39.6866C85.8586 39.6887 86.3492 39.5039 86.731 39.1668C87.1128 38.8297 87.3596 38.3635 87.4251 37.8558V37.8351L87.4291 37.8152C87.4635 37.5449 87.5949 37.2968 87.7983 37.1178C88.0017 36.9387 88.263 36.841 88.5329 36.8432H88.6354C88.9102 36.8434 89.1751 36.9463 89.3792 37.1321C89.5832 37.318 89.7118 37.5735 89.7401 37.8494Z" fill="#061237"/>
<path d="M85.3904 33.7373C84.8924 33.7388 84.399 33.6405 83.9388 33.4481C83.4786 33.2557 83.0608 32.9731 82.7096 32.6166C82.3565 32.262 82.0765 31.8402 81.886 31.3756C81.6955 30.9111 81.5981 30.413 81.5994 29.9102C81.5994 29.6848 81.688 29.4688 81.8458 29.3094C82.0035 29.1499 82.2176 29.0603 82.4407 29.0601C82.664 29.0603 82.8779 29.1499 83.0357 29.3094C83.1934 29.4688 83.282 29.6848 83.282 29.9102C83.2828 30.4744 83.5053 31.0152 83.9005 31.4141C84.2958 31.8129 84.8316 32.0373 85.3904 32.0379C85.9493 32.0373 86.4851 31.8129 86.8803 31.4141C87.2756 31.0152 87.4979 30.4744 87.4988 29.9102C87.4987 29.7986 87.5204 29.6881 87.5626 29.585C87.6048 29.4818 87.6668 29.3881 87.7449 29.3091C87.8231 29.2302 87.9159 29.1675 88.0179 29.1248C88.1201 29.0821 88.2296 29.0601 88.3402 29.0601C88.5633 29.0603 88.7773 29.1499 88.9351 29.3094C89.0928 29.4688 89.1814 29.6848 89.1814 29.9102C89.1828 30.413 89.0853 30.911 88.8948 31.3756C88.7043 31.8402 88.4243 32.262 88.0712 32.6166C87.72 32.9731 87.3022 33.2556 86.842 33.4481C86.3818 33.6404 85.8885 33.7388 85.3904 33.7373Z" fill="#061237"/>
</svg>
